<?xml version="1.0" encoding="iso-8859-1"?>
<!-- Generator: Adobe Illustrator 21.0.0, SVG Export Plug-In . SVG Version: 6.00 Build 0)  -->
<svg version="1.1" id="Capa_1" xmlns="http://www.w3.org/2000/svg" xmlns:xlink="http://www.w3.org/1999/xlink" x="0px" y="0px"
	 viewBox="0 0 512 512" style="enable-background:new 0 0 512 512;" xml:space="preserve">
<g>
	<g>
		<path d="M511.998,261.967v-30H391.001c-1.448-19.531-7.119-38.234-16.279-54.968l63.956-63.956l-21.213-21.213l-60.27,60.271
			c-9.246-10.441-20.129-19.515-32.387-26.765c1.811-6.289,2.802-12.921,2.802-19.785c0-14.471-4.328-27.943-11.738-39.218
			l45.122-45.122L339.781,0l-45.244,45.244c-11.135-7.14-24.356-11.301-38.538-11.301s-27.402,4.161-38.537,11.301L172.219,0
			l-21.213,21.213l45.122,45.122c-7.41,11.275-11.738,24.747-11.738,39.218c0,6.864,0.991,13.497,2.802,19.785
			c-12.257,7.25-23.14,16.323-32.385,26.762L94.54,91.831l-21.213,21.213l63.954,63.954c-9.161,16.734-14.833,35.438-16.281,54.97
			H0.001v30h120.627v57.297H56.948V512h30V349.264h33.869c3.722,71.341,62.932,128.237,135.183,128.237
			s131.461-56.897,135.183-128.237h33.869V512h30V319.264H391.37v-57.297H511.998z M256.001,63.943
			c22.944,0,41.61,18.665,41.61,41.61c0,22.944-18.666,41.61-41.61,41.61c-22.944,0-41.61-18.666-41.61-41.61
			S233.057,63.943,256.001,63.943z M256.001,447.501c-58.102,0-105.371-47.27-105.371-105.37v-100.2
			c0-37.021,19.58-71.18,50.766-90.125c13.146,15.496,32.741,25.357,54.606,25.357c21.865,0,41.46-9.861,54.606-25.357
			c31.187,18.946,50.766,53.104,50.766,90.124v100.201h0C361.372,400.233,314.103,447.501,256.001,447.501z"/>
	</g>
</g>
<g>
</g>
<g>
</g>
<g>
</g>
<g>
</g>
<g>
</g>
<g>
</g>
<g>
</g>
<g>
</g>
<g>
</g>
<g>
</g>
<g>
</g>
<g>
</g>
<g>
</g>
<g>
</g>
<g>
</g>
</svg>
