<?xml version="1.0" encoding="iso-8859-1"?>
<!-- Generator: Adobe Illustrator 21.0.0, SVG Export Plug-In . SVG Version: 6.00 Build 0)  -->
<svg version="1.1" id="Capa_1" xmlns="http://www.w3.org/2000/svg" xmlns:xlink="http://www.w3.org/1999/xlink" x="0px" y="0px"
	 viewBox="0 0 512 512" style="enable-background:new 0 0 512 512;" xml:space="preserve">
<g>
	<g>
		<path d="M316.053,100.113V0H195.947v100.113h-88.981V512h298.068V100.113H316.053z M225.947,30h60.105v70.113h-60.105V30z
			 M375.034,482H136.966V130.113h238.068V482z"/>
	</g>
</g>
<g>
	<g>
		<path d="M301.024,316.052h30.035v-30h-30.035v-9.726c0-6.946-1.583-13.528-4.404-19.408l23.061-23.062l-21.213-21.213
			l-23.061,23.062c-5.88-2.821-12.462-4.404-19.407-4.404s-13.527,1.583-19.407,4.404l-23.061-23.062l-21.213,21.213l23.061,23.062
			c-2.821,5.88-4.404,12.462-4.404,19.408v9.726H180.94v30h30.035v9.726h0.001c0,6.946,1.583,13.528,4.404,19.408l-23.061,23.062
			l21.213,21.213l23.061-23.062c5.88,2.821,12.462,4.404,19.407,4.404s13.527-1.583,19.407-4.404l23.061,23.062l21.213-21.213
			l-23.061-23.062c2.821-5.88,4.404-12.462,4.404-19.408V316.052z M271.024,325.778c0,8.284-6.74,15.024-15.024,15.024
			s-15.024-6.74-15.024-15.024v-49.451c0-8.284,6.74-15.024,15.024-15.024s15.024,6.74,15.024,15.024V325.778z"/>
	</g>
</g>
<g>
</g>
<g>
</g>
<g>
</g>
<g>
</g>
<g>
</g>
<g>
</g>
<g>
</g>
<g>
</g>
<g>
</g>
<g>
</g>
<g>
</g>
<g>
</g>
<g>
</g>
<g>
</g>
<g>
</g>
</svg>
