<?xml version="1.0" encoding="iso-8859-1"?>
<!-- Generator: Adobe Illustrator 21.0.0, SVG Export Plug-In . SVG Version: 6.00 Build 0)  -->
<svg version="1.1" id="Capa_1" xmlns="http://www.w3.org/2000/svg" xmlns:xlink="http://www.w3.org/1999/xlink" x="0px" y="0px"
	 viewBox="0 0 512 512" style="enable-background:new 0 0 512 512;" xml:space="preserve">
<g>
	<g>
		<path d="M335.104,130.104v-30.049h61.955V0h-280.2v35.028H86.823v30h30.036v20.027c0,62.256-23.559,94.579-23.797,94.898
			l0.06-0.079l23.811,18.25c1.136-1.482,25.986-34.668,29.501-98.069h98.623v30.049h-32.532l-67.548,90.063V512h280.2V130.104
			H335.104z M146.859,70.056V30h220.2v40.056H146.859z M305.105,100.056v30.049h-30.048v-30.049H305.105z M395.177,482h-220.2
			V230.168l52.548-70.063h167.652V482z"/>
	</g>
</g>
<g>
	<g>
		<path d="M330.103,356.07h30.036v-30h-30.036v-9.727c0-6.945-1.583-13.527-4.404-19.407l23.062-23.062l-21.213-21.213
			l-23.062,23.062c-5.88-2.821-12.462-4.404-19.408-4.404c-6.945,0-13.527,1.583-19.407,4.403l-23.062-23.062l-21.214,21.213
			l23.062,23.062c-2.821,5.88-4.403,12.462-4.403,19.407v9.727h-30.036v30h30.036v9.726c0,6.946,1.583,13.528,4.404,19.408
			l-23.062,23.061l21.213,21.213l23.062-23.061c5.88,2.821,12.462,4.404,19.407,4.404c6.946,0,13.528-1.583,19.408-4.404
			l23.062,23.061l21.213-21.213l-23.062-23.061c2.821-5.88,4.404-12.462,4.404-19.407V356.07z M300.1,365.793
			c0,8.284-6.74,15.024-15.024,15.024s-15.023-6.74-15.023-15.024v-49.452c0-8.283,6.739-15.023,15.023-15.023
			s15.024,6.739,15.024,15.023V365.793z"/>
	</g>
</g>
<g>
</g>
<g>
</g>
<g>
</g>
<g>
</g>
<g>
</g>
<g>
</g>
<g>
</g>
<g>
</g>
<g>
</g>
<g>
</g>
<g>
</g>
<g>
</g>
<g>
</g>
<g>
</g>
<g>
</g>
</svg>
