<?xml version="1.0" encoding="iso-8859-1"?>
<!-- Generator: Adobe Illustrator 21.0.0, SVG Export Plug-In . SVG Version: 6.00 Build 0)  -->
<svg version="1.1" id="Capa_1" xmlns="http://www.w3.org/2000/svg" xmlns:xlink="http://www.w3.org/1999/xlink" x="0px" y="0px"
	 viewBox="0 0 512 512" style="enable-background:new 0 0 512 512;" xml:space="preserve">
<g>
	<g>
		<path d="M394,118V0H118v118H0v276h118v118h276V394h118V118H394z M482,364H364v118H148V364H30V148h118V30h216v118h118V364z"/>
	</g>
</g>
<g>
	<g>
		<path d="M343.265,246.152c6.084-32.02-5.285-67.415-5.797-68.981l-4.181-12.793l-13.169,2.775
			c-1.141,0.24-26.222,5.637-48.73,19.399c-10.187-1.709-20.589-1.709-30.777,0c-22.508-13.761-47.589-19.159-48.73-19.399
			l-13.169-2.775l-4.181,12.793c-0.512,1.566-11.881,36.96-5.797,68.981c-3.782,10.261-5.696,21.027-5.696,32.076
			c0,51.259,41.703,92.961,92.962,92.961c51.259,0,92.962-41.702,92.961-92.961C348.961,267.179,347.047,256.413,343.265,246.152z
			 M256.001,341.19c-34.717,0-62.962-28.244-62.962-62.961c0-8.628,1.719-16.994,5.108-24.865l2.012-4.673l-1.246-4.932
			c-3.649-14.454-1.645-31.5,0.665-43.215c8.632,2.954,19.875,7.615,29.472,14.261l5.532,3.832l6.54-1.585
			c9.78-2.369,19.98-2.369,29.759,0l6.54,1.585l5.532-3.832c9.653-6.685,20.881-11.342,29.491-14.284
			c2.404,12.396,4.139,29.398,0.645,43.238l-1.246,4.932l2.012,4.673c3.389,7.871,5.108,16.237,5.108,24.865
			C318.963,312.946,290.718,341.19,256.001,341.19z"/>
	</g>
</g>
<g>
</g>
<g>
</g>
<g>
</g>
<g>
</g>
<g>
</g>
<g>
</g>
<g>
</g>
<g>
</g>
<g>
</g>
<g>
</g>
<g>
</g>
<g>
</g>
<g>
</g>
<g>
</g>
<g>
</g>
</svg>
