<?xml version="1.0" encoding="iso-8859-1"?>
<!-- Generator: Adobe Illustrator 21.0.0, SVG Export Plug-In . SVG Version: 6.00 Build 0)  -->
<svg version="1.1" id="Capa_1" xmlns="http://www.w3.org/2000/svg" xmlns:xlink="http://www.w3.org/1999/xlink" x="0px" y="0px"
	 viewBox="0 0 512 512" style="enable-background:new 0 0 512 512;" xml:space="preserve">
<g>
	<g>
		<path d="M224.343,154.535v-30.023h-90.048v30.023h-30.024v90.049h30.024v30.023h90.048v-30.023h30.024v-90.049H224.343z
			 M224.367,214.583h-30.024v30.023h-30.048v-30.023h-30.024v-30.049h30.024v-30.023h30.048v30.023h30.024V214.583z"/>
	</g>
</g>
<g>
	<g>
		<path d="M425.317,114.503h-66.68v-50.04H0v341.811h62.094c6.583,23.761,28.387,41.262,54.215,41.262s47.632-17.5,54.215-41.262
			h170.95c6.583,23.761,28.387,41.262,54.215,41.262s47.632-17.5,54.215-41.262H512V255.36L425.317,114.503z M358.638,144.503
			h49.916l61.603,100.104H358.638V144.503z M116.31,417.536c-14.48,0-26.262-11.781-26.262-26.262
			c0-14.481,11.781-26.262,26.262-26.262s26.262,11.781,26.262,26.262C142.572,405.755,130.79,417.536,116.31,417.536z
			 M395.69,417.536c-14.48,0-26.262-11.781-26.262-26.262c0-14.481,11.781-26.262,26.262-26.262
			c14.481,0,26.262,11.781,26.262,26.262C421.952,405.755,410.171,417.536,395.69,417.536z M482,376.274h-32.094v-0.001
			c-6.583-23.761-28.387-41.262-54.215-41.262s-47.632,17.5-54.215,41.262h-170.95c-6.583-23.761-28.387-41.262-54.215-41.262
			s-47.632,17.5-54.215,41.262H30V94.463h298.638v180.144H482V376.274z"/>
	</g>
</g>
<g>
</g>
<g>
</g>
<g>
</g>
<g>
</g>
<g>
</g>
<g>
</g>
<g>
</g>
<g>
</g>
<g>
</g>
<g>
</g>
<g>
</g>
<g>
</g>
<g>
</g>
<g>
</g>
<g>
</g>
</svg>
