<?xml version="1.0" encoding="iso-8859-1"?>
<!-- Generator: Adobe Illustrator 21.0.0, SVG Export Plug-In . SVG Version: 6.00 Build 0)  -->
<svg version="1.1" id="Capa_1" xmlns="http://www.w3.org/2000/svg" xmlns:xlink="http://www.w3.org/1999/xlink" x="0px" y="0px"
	 viewBox="0 0 512 512" style="enable-background:new 0 0 512 512;" xml:space="preserve">
<g>
	<g>
		<path d="M202.926,186.78c-8.502-8.502-19.807-13.185-31.831-13.185s-23.329,4.683-31.83,13.185
			c-8.502,8.502-13.186,19.807-13.186,31.831c0,12.025,4.683,23.33,13.185,31.831c8.502,8.502,19.807,13.185,31.831,13.185
			s23.329-4.683,31.831-13.185C220.478,232.889,220.478,204.331,202.926,186.78z M181.717,229.232
			c-2.837,2.837-6.61,4.399-10.622,4.399s-7.784-1.563-10.621-4.4c-2.836-2.835-4.399-6.608-4.399-10.621
			c0-4.012,1.563-7.784,4.4-10.621c2.836-2.837,6.608-4.399,10.62-4.399c4.012,0,7.784,1.563,10.622,4.399
			C187.573,213.844,187.573,223.375,181.717,229.232z"/>
	</g>
</g>
<g>
	<g>
		<path d="M372.736,186.781c-8.502-8.502-19.806-13.185-31.831-13.185c-12.024,0-23.329,4.683-31.831,13.185
			c-17.552,17.552-17.552,46.109,0,63.661c8.502,8.502,19.807,13.185,31.831,13.185c12.023,0,23.328-4.683,31.83-13.185
			c0,0,0,0,0.001-0.001c8.501-8.502,13.185-19.807,13.185-31.831S381.237,195.282,372.736,186.781z M351.526,229.231
			c-2.838,2.838-6.609,4.4-10.621,4.4c-4.012,0-7.785-1.563-10.622-4.399c-5.856-5.857-5.856-15.387,0-21.243
			c2.837-2.837,6.61-4.399,10.622-4.399c4.012,0,7.784,1.563,10.621,4.4c2.837,2.836,4.399,6.608,4.399,10.62
			C355.926,222.623,354.363,226.395,351.526,229.231z"/>
	</g>
</g>
<g>
	<g>
		<path d="M332.643,339.555c-0.004,14.058-11.442,25.495-25.499,25.495h-10.651c-11.946,0-21.995-8.26-24.745-19.368
			c17.078-6.399,29.269-22.884,29.269-42.167c0-24.821-20.194-45.015-45.015-45.015s-45.015,20.193-45.015,45.015
			c0,19.283,12.192,35.769,29.269,42.167c-2.751,11.108-12.8,19.368-24.745,19.368H204.86c-14.058,0-25.495-11.437-25.495-25.495
			H149.37c0,25.552,17.367,47.113,40.912,53.533c3.674,33.017,31.741,58.779,65.722,58.779c33.981,0,62.046-25.762,65.722-58.779
			c23.546-6.42,40.912-27.981,40.912-53.533H332.643z M256,288.494c8.282,0,15.021,6.738,15.021,15.02s-6.739,15.021-15.021,15.021
			c-8.282,0-15.021-6.739-15.021-15.021S247.718,288.494,256,288.494z M256,421.872c-16.809,0-30.974-11.534-35-27.102
			c13.756-1.358,26.044-7.766,35-17.333c8.956,9.567,21.244,15.975,35,17.333C286.975,410.339,272.809,421.872,256,421.872z"/>
	</g>
</g>
<g>
	<g>
		<path d="M491.837,278.984l-31.709-81.427c-7.794-20.012-18.418-38.667-31.616-55.523V0h-14.997
			c-24.69,0-48.466,7.362-68.753,21.289c-16.09,11.046-29.156,25.608-38.31,42.586c-16.511-3.909-33.428-5.886-50.452-5.886
			s-33.941,1.977-50.452,5.886c-9.154-16.977-22.221-31.54-38.31-42.586C146.951,7.362,123.176,0,98.485,0H83.488v142.034
			c-13.198,16.857-23.823,35.512-31.616,55.523l-31.709,81.427c-28.221,72.468,2.2,154.799,70.76,191.507
			c51.689,27.677,108.373,41.513,165.077,41.509c56.69-0.003,113.4-13.839,165.077-41.509
			C489.638,433.783,520.058,351.453,491.837,278.984z M406.92,444.049c-94.501,50.597-207.337,50.597-301.839,0
			c-55.197-29.553-79.688-95.836-56.968-154.18l31.709-81.427c7.299-18.742,17.473-36.101,30.238-51.596l3.422-4.154V31.209
			c31.209,5.105,57.773,25.968,69.956,56.022l5.131,12.658l13.081-3.928c17.63-5.293,35.916-7.977,54.35-7.977
			s36.721,2.685,54.351,7.977l13.081,3.928l5.131-12.658c12.183-30.055,38.747-50.917,69.956-56.022v121.482l3.422,4.154
			c12.767,15.495,22.94,32.854,30.238,51.596l31.709,81.427C486.608,348.212,462.117,414.495,406.92,444.049z"/>
	</g>
</g>
<g>
</g>
<g>
</g>
<g>
</g>
<g>
</g>
<g>
</g>
<g>
</g>
<g>
</g>
<g>
</g>
<g>
</g>
<g>
</g>
<g>
</g>
<g>
</g>
<g>
</g>
<g>
</g>
<g>
</g>
</svg>
