<?xml version="1.0" encoding="iso-8859-1"?>
<!-- Generator: Adobe Illustrator 21.0.0, SVG Export Plug-In . SVG Version: 6.00 Build 0)  -->
<svg version="1.1" id="Capa_1" xmlns="http://www.w3.org/2000/svg" xmlns:xlink="http://www.w3.org/1999/xlink" x="0px" y="0px"
	 viewBox="0 0 512 512" style="enable-background:new 0 0 512 512;" xml:space="preserve">
<g>
	<g>
		<path d="M310.997,42C304.396,17.823,282.241,0,256,0c-26.241,0-48.397,17.823-54.998,42H48.88v470h414.24V42H310.997z M168.952,72
			H229V57c0-14.888,12.112-27,27-27s27,12.112,27,27v15h60.048v30.048H168.952V72z M373.072,132.048V422H138.928V132.048H373.072z
			 M433.12,482L433.12,482H78.88V72h60.072v30.048h-30.024V452h294.144V102.048h-30.024V72h60.072V482z"/>
	</g>
</g>
<g>
	<g>
		<rect x="168.96" y="162.1" width="174.07" height="30"/>
	</g>
</g>
<g>
	<g>
		<rect x="168.96" y="282.19" width="174.07" height="30"/>
	</g>
</g>
<g>
	<g>
		<rect x="168.96" y="222.14" width="174.07" height="30"/>
	</g>
</g>
<g>
</g>
<g>
</g>
<g>
</g>
<g>
</g>
<g>
</g>
<g>
</g>
<g>
</g>
<g>
</g>
<g>
</g>
<g>
</g>
<g>
</g>
<g>
</g>
<g>
</g>
<g>
</g>
<g>
</g>
</svg>
