<?xml version="1.0" encoding="iso-8859-1"?>
<!-- Generator: Adobe Illustrator 21.0.0, SVG Export Plug-In . SVG Version: 6.00 Build 0)  -->
<svg version="1.1" id="Capa_1" xmlns="http://www.w3.org/2000/svg" xmlns:xlink="http://www.w3.org/1999/xlink" x="0px" y="0px"
	 viewBox="0 0 512 512" style="enable-background:new 0 0 512 512;" xml:space="preserve">
<g>
	<g>
		<path d="M256,0.004L0,205.673l56.625,70.483l30.303-24.346v170.116h119.044v90.07h100.054v-90.07H425.07V251.811l30.303,24.346
			L512,205.673L256,0.004z M276.028,481.998h-40.055v-60.071h40.055V481.998z M395.072,391.927L395.072,391.927H116.929V227.71
			l139.072-111.728L395.072,227.71V391.927z M450.775,233.981L256,77.499L61.224,233.981l-19.048-23.711L256,38.486l213.824,171.785
			L450.775,233.981z"/>
	</g>
</g>
<g>
	<g>
		<path d="M255.999,193.212c-44.846,0-81.331,36.486-81.331,81.331c0,44.846,36.485,81.331,81.331,81.331
			c44.846,0,81.331-36.485,81.331-81.331C337.33,229.697,300.845,193.212,255.999,193.212z M256,325.876
			c-28.304,0-51.332-23.028-51.332-51.332c0-28.305,23.028-51.332,51.332-51.332s51.332,23.029,51.332,51.332
			C307.332,302.848,284.304,325.876,256,325.876z"/>
	</g>
</g>
<g>
</g>
<g>
</g>
<g>
</g>
<g>
</g>
<g>
</g>
<g>
</g>
<g>
</g>
<g>
</g>
<g>
</g>
<g>
</g>
<g>
</g>
<g>
</g>
<g>
</g>
<g>
</g>
<g>
</g>
</svg>
