<?xml version="1.0" encoding="iso-8859-1"?>
<!-- Generator: Adobe Illustrator 21.0.0, SVG Export Plug-In . SVG Version: 6.00 Build 0)  -->
<svg version="1.1" id="Capa_1" xmlns="http://www.w3.org/2000/svg" xmlns:xlink="http://www.w3.org/1999/xlink" x="0px" y="0px"
	 viewBox="0 0 511.999 511.999" style="enable-background:new 0 0 511.999 511.999;" xml:space="preserve">
<g>
	<g>
		<path d="M462.935,317.411c7.915-10.607,12.607-23.753,12.607-37.976c0-33.72-26.37-61.383-59.569-63.486
			c4.759-8.452,7.487-18.193,7.487-28.564c0-32.214-26.208-58.421-58.421-58.421h-11.588c-6.451-44.211-40.925-78.069-82.36-78.069
			l-13.662-0.05l-1.269,13.607c-0.014,0.139-1.471,14.055-8.53,29.196c-8.42,18.06-20.9,29.918-37.094,35.315H146.96
			c-32.213,0-58.421,26.207-58.421,58.421c0,10.371,2.729,20.112,7.487,28.564c-33.199,2.103-59.569,29.766-59.569,63.486
			c0,14.222,4.692,27.369,12.607,37.976C20.492,327.682,0,355.044,0,387.109c0,40.828,33.217,74.045,74.045,74.045h363.909
			c40.829,0,74.045-33.217,74.045-74.046C512,355.044,491.508,327.682,462.935,317.411z M283.224,82.534
			c19.553,5.375,35.008,23.455,39.777,46.431H260.92C273.715,113.128,280.108,95.029,283.224,82.534z M146.96,158.964h218.08
			c15.671,0,28.421,12.75,28.421,28.421s-12.75,28.421-28.421,28.421H146.96c-15.671,0-28.421-12.75-28.421-28.421
			S131.289,158.964,146.96,158.964z M100.086,245.805h311.827c18.543,0,33.629,15.086,33.629,33.629
			c0,18.543-15.086,33.629-33.629,33.629H100.086c-18.543,0-33.629-15.086-33.629-33.629
			C66.457,260.891,81.543,245.805,100.086,245.805z M437.955,431.154H74.045C49.759,431.154,30,411.396,30,387.109
			c0-24.286,19.759-44.045,44.045-44.045h363.909c24.287,0,44.045,19.759,44.045,44.046
			C482,411.396,462.241,431.154,437.955,431.154z"/>
	</g>
</g>
<g>
</g>
<g>
</g>
<g>
</g>
<g>
</g>
<g>
</g>
<g>
</g>
<g>
</g>
<g>
</g>
<g>
</g>
<g>
</g>
<g>
</g>
<g>
</g>
<g>
</g>
<g>
</g>
<g>
</g>
</svg>
