<?xml version="1.0" encoding="iso-8859-1"?>
<!-- Generator: Adobe Illustrator 21.0.0, SVG Export Plug-In . SVG Version: 6.00 Build 0)  -->
<svg version="1.1" id="Capa_1" xmlns="http://www.w3.org/2000/svg" xmlns:xlink="http://www.w3.org/1999/xlink" x="0px" y="0px"
	 viewBox="0 0 512 512" style="enable-background:new 0 0 512 512;" xml:space="preserve">
<g>
	<g>
		<path d="M316.035,120V60.036C316.035,26.932,289.103,0,255.999,0s-60.036,26.932-60.036,60.036V120h-79.618v392h279.309V120
			H316.035z M255.999,30c16.562,0,30.036,13.475,30.036,30.036V120h-60.072V60.036h0C225.963,43.475,239.437,30,255.999,30z
			 M146.345,150h219.308v60.072H146.345V150z M365.655,482H146.345V240.072h219.309V482z"/>
	</g>
</g>
<g>
	<g>
		<path d="M176.345,300.097v121.879h159.309V300.097H176.345z M305.655,391.976h-99.309v-61.879h99.309V391.976z"/>
	</g>
</g>
<g>
</g>
<g>
</g>
<g>
</g>
<g>
</g>
<g>
</g>
<g>
</g>
<g>
</g>
<g>
</g>
<g>
</g>
<g>
</g>
<g>
</g>
<g>
</g>
<g>
</g>
<g>
</g>
<g>
</g>
</svg>
