<?xml version="1.0" encoding="iso-8859-1"?>
<!-- Generator: Adobe Illustrator 21.0.0, SVG Export Plug-In . SVG Version: 6.00 Build 0)  -->
<svg version="1.1" id="Capa_1" xmlns="http://www.w3.org/2000/svg" xmlns:xlink="http://www.w3.org/1999/xlink" x="0px" y="0px"
	 viewBox="0 0 512 512" style="enable-background:new 0 0 512 512;" xml:space="preserve">
<g>
	<g>
		<path d="M512,232.318V112.246H0v120.072h241v31.002c-14.868-2.986-30.912,1.264-42.416,12.767
			c-18.266,18.265-18.266,47.985,0,66.25L256,399.754l57.416-57.416c18.266-18.265,18.266-47.985,0-66.25
			c-11.504-11.504-27.55-15.754-42.416-12.768v-31.002H512z M431.667,142.246H482v60.072h-50.333V142.246z M351.333,142.246h50.334
			v60.072h-50.334V142.246z M271,142.246h50.333v60.072H271V142.246z M80.333,202.318H30v-60.072h50.333V202.318z M160.667,202.318
			h-50.334v-60.072h50.334V202.318z M190.667,202.318v-60.072H241v60.072H190.667z M280.291,292.367c4.5,0,8.73,1.752,11.912,4.934
			c6.568,6.568,6.568,17.256,0,23.824L256,357.328l-36.203-36.203c-6.568-6.568-6.568-17.256,0-23.824
			c3.182-3.182,7.412-4.934,11.912-4.934s8.73,1.752,11.915,4.937L256,309.673l12.379-12.372
			C271.561,294.119,275.791,292.367,280.291,292.367z"/>
	</g>
</g>
<g>
</g>
<g>
</g>
<g>
</g>
<g>
</g>
<g>
</g>
<g>
</g>
<g>
</g>
<g>
</g>
<g>
</g>
<g>
</g>
<g>
</g>
<g>
</g>
<g>
</g>
<g>
</g>
<g>
</g>
</svg>
