<?xml version="1.0" encoding="iso-8859-1"?>
<!-- Generator: Adobe Illustrator 21.0.0, SVG Export Plug-In . SVG Version: 6.00 Build 0)  -->
<svg version="1.1" id="Capa_1" xmlns="http://www.w3.org/2000/svg" xmlns:xlink="http://www.w3.org/1999/xlink" x="0px" y="0px"
	 viewBox="0 0 512.001 512.001" style="enable-background:new 0 0 512.001 512.001;" xml:space="preserve">
<g>
	<g>
		<path d="M429.831,55.255c-10.18-10.18-23.715-15.786-38.111-15.786s-27.931,5.606-38.111,15.786L0,408.863l63.67,63.669
			l157.505-157.505l56.611,56.611l234.215-234.215L429.831,55.255z M63.67,430.109l-21.246-21.246L374.82,76.466
			c9.317-9.317,24.48-9.317,33.799,0l4.347,4.347L63.67,430.109z M277.784,329.216l-35.398-35.4l21.389-21.389l35.399,35.399
			L277.784,329.216z M320.387,286.614l-35.399-35.399l21.389-21.389l35.399,35.399L320.387,286.614z M362.986,244.015l-35.398-35.4
			l21.389-21.389l35.399,35.399L362.986,244.015z M405.587,201.413l-35.399-35.399l21.389-21.389l35.399,35.399L405.587,201.413z
			 M412.789,123.414l21.389-21.389l35.399,35.399l-21.389,21.389L412.789,123.414z"/>
	</g>
</g>
<g>
</g>
<g>
</g>
<g>
</g>
<g>
</g>
<g>
</g>
<g>
</g>
<g>
</g>
<g>
</g>
<g>
</g>
<g>
</g>
<g>
</g>
<g>
</g>
<g>
</g>
<g>
</g>
<g>
</g>
</svg>
