<?xml version="1.0" encoding="iso-8859-1"?>
<!-- Generator: Adobe Illustrator 21.0.0, SVG Export Plug-In . SVG Version: 6.00 Build 0)  -->
<svg version="1.1" id="Capa_1" xmlns="http://www.w3.org/2000/svg" xmlns:xlink="http://www.w3.org/1999/xlink" x="0px" y="0px"
	 viewBox="0 0 512 512" style="enable-background:new 0 0 512 512;" xml:space="preserve">
<g>
	<g>
		<path d="M94.504,0.022C42.394,0.022,0,42.417,0,94.526v188.492c0,52.109,42.394,94.504,94.504,94.504
			c52.11,0,94.504-42.395,94.504-94.504V94.526C189.008,42.417,146.614,0.022,94.504,0.022z M159.008,283.019
			c0,35.567-28.937,64.503-64.504,64.503C58.937,347.522,30,318.586,30,283.019v-46.093h129.008V283.019z M159.008,170.62v36.307H30
			v-36.307L159.008,170.62L159.008,170.62z M159.008,140.62H30V94.526c0-35.567,28.937-64.504,64.504-64.504
			c35.567,0,64.504,28.937,64.504,64.504V140.62z"/>
	</g>
</g>
<g>
	<g>
		<path d="M484.32,217.41c-36.847-36.848-96.802-36.848-133.648,0L217.388,350.694c-17.85,17.849-27.68,41.581-27.68,66.824
			c0,25.243,9.83,48.976,27.68,66.824c18.423,18.424,42.624,27.635,66.824,27.635s48.401-9.211,66.824-27.635L484.32,351.059
			C502.17,333.21,512,309.478,512,284.234C512,258.99,502.17,235.259,484.32,217.41z M329.823,463.13
			c-25.15,25.148-66.072,25.148-91.223,0c-12.183-12.184-18.893-28.382-18.893-45.611s6.709-33.428,18.893-45.611l32.593-32.593
			l91.223,91.223L329.823,463.13z M383.629,409.325l-91.223-91.223l25.673-25.673l91.223,91.223L383.629,409.325z M463.107,329.846
			l-32.593,32.593l-91.223-91.223l32.593-32.593c12.575-12.574,29.093-18.862,45.611-18.862s33.036,6.288,45.611,18.862
			C475.291,250.807,482,267.005,482,284.234S475.291,317.662,463.107,329.846z"/>
	</g>
</g>
<g>
</g>
<g>
</g>
<g>
</g>
<g>
</g>
<g>
</g>
<g>
</g>
<g>
</g>
<g>
</g>
<g>
</g>
<g>
</g>
<g>
</g>
<g>
</g>
<g>
</g>
<g>
</g>
<g>
</g>
</svg>
