<?xml version="1.0" encoding="iso-8859-1"?>
<!-- Generator: Adobe Illustrator 21.0.0, SVG Export Plug-In . SVG Version: 6.00 Build 0)  -->
<svg version="1.1" id="Capa_1" xmlns="http://www.w3.org/2000/svg" xmlns:xlink="http://www.w3.org/1999/xlink" x="0px" y="0px"
	 viewBox="0 0 512 512" style="enable-background:new 0 0 512 512;" xml:space="preserve">
<g>
	<g>
		<path d="M492.919,333.872c-12.482-18.023-29.928-31.627-50.452-39.338l-79.383-29.826c9.414-17.281,14.768-37.079,14.768-58.105
			v-84.752C377.853,54.662,323.189,0,256,0S134.147,54.662,134.147,121.852v84.752c0,21.026,5.354,40.824,14.768,58.105
			l-79.383,29.826c-20.524,7.711-37.97,21.314-50.452,39.338C6.598,351.896,0,373.013,0,394.938V512h512V394.938
			C512,373.013,505.402,351.896,492.919,333.872z M256,30c41.661,0,76.927,27.882,88.132,65.964
			c-14.746,8.98-31.523,13.703-49.064,13.703c-24.775,0-48.205-9.513-65.974-26.786L218.64,72.717l-10.456,10.164
			c-11.999,11.664-26.797,19.86-42.794,23.903C172.601,63.28,210.484,30,256,30z M120.723,381.896
			c8.284,0,15.024,6.739,15.024,15.023s-6.74,15.024-15.024,15.024s-15.024-6.74-15.024-15.024S112.438,381.896,120.723,381.896z
			 M241.001,482H30v-87.062c0-32.002,20.127-61.064,50.084-72.319l25.639-9.633v41.49c-17.472,6.193-30.024,22.877-30.024,42.445
			c0,24.826,20.198,45.024,45.024,45.024c24.826,0,45.024-20.198,45.024-45.024c0-19.568-12.552-36.251-30.024-42.445v-52.762
			l31.433-11.81c19.018,20.272,44.871,34.056,73.845,37.629V482z M164.147,206.603v-68.875c19.827-3.542,38.54-11.864,54.482-24.238
			c21.788,16.965,48.462,26.176,76.439,26.176c18.522,0,36.404-4,52.784-11.683v78.619c0.001,50.649-41.205,91.854-91.852,91.854
			C205.353,298.456,164.147,257.251,164.147,206.603z M482,482H271V327.532c28.973-3.573,54.826-17.357,73.845-37.629l87.072,32.714
			C461.873,333.873,482,362.936,482,394.938V482z"/>
	</g>
</g>
<g>
</g>
<g>
</g>
<g>
</g>
<g>
</g>
<g>
</g>
<g>
</g>
<g>
</g>
<g>
</g>
<g>
</g>
<g>
</g>
<g>
</g>
<g>
</g>
<g>
</g>
<g>
</g>
<g>
</g>
</svg>
