<?xml version="1.0" encoding="iso-8859-1"?>
<!-- Generator: Adobe Illustrator 21.0.0, SVG Export Plug-In . SVG Version: 6.00 Build 0)  -->
<svg version="1.1" id="Capa_1" xmlns="http://www.w3.org/2000/svg" xmlns:xlink="http://www.w3.org/1999/xlink" x="0px" y="0px"
	 viewBox="0 0 512 512" style="enable-background:new 0 0 512 512;" xml:space="preserve">
<g>
	<g>
		<path d="M301.024,180.952v-30.048h180.951V60.857H30.024v90.048h180.951v30.048H0v270.191h512V180.952H301.024z M60.024,120.904
			V90.857h391.951v30.048H60.024z M271.025,150.904v30.048h-30.049v-30.048H271.025z M482,421.145H30V210.952h452V421.145z"/>
	</g>
</g>
<g>
	<g>
		<path d="M256,241.001c-41.382,0-75.049,33.666-75.049,75.048c0,41.382,33.667,75.048,75.049,75.048s75.049-33.666,75.049-75.048
			C331.049,274.667,297.382,241.001,256,241.001z M271,358.519v-57.482h-30v57.482c-17.486-6.194-30.049-22.889-30.049-42.47
			c0-24.84,20.209-45.048,45.049-45.048c24.84,0,45.049,20.208,45.049,45.048C301.049,335.631,288.486,352.324,271,358.519z"/>
	</g>
</g>
<g>
</g>
<g>
</g>
<g>
</g>
<g>
</g>
<g>
</g>
<g>
</g>
<g>
</g>
<g>
</g>
<g>
</g>
<g>
</g>
<g>
</g>
<g>
</g>
<g>
</g>
<g>
</g>
<g>
</g>
</svg>
