<?xml version="1.0" encoding="iso-8859-1"?>
<!-- Generator: Adobe Illustrator 21.0.0, SVG Export Plug-In . SVG Version: 6.00 Build 0)  -->
<svg version="1.1" id="Capa_1" xmlns="http://www.w3.org/2000/svg" xmlns:xlink="http://www.w3.org/1999/xlink" x="0px" y="0px"
	 viewBox="0 0 512 512" style="enable-background:new 0 0 512 512;" xml:space="preserve">
<g>
	<g>
		<path d="M446.344,297.13v-72.072H310.937l34.353-34.353c18.496,7.47,40.378,3.519,55.046-11.151
			c9.601-9.601,14.888-22.364,14.888-35.942c0-13.578-5.287-26.341-14.888-35.942c-6.437-6.437-14.286-10.931-22.852-13.194
			c-2.263-8.565-6.757-16.414-13.194-22.852c-9.601-9.601-22.363-14.888-35.944-14.888c-13.577,0-26.341,5.287-35.94,14.888
			c-14.67,14.67-18.624,36.548-11.151,55.047l-98.386,98.385H65.658v72.072L0,455.263h512L446.344,297.13z M319.755,130.607
			l-7.974-10.433c-6.294-8.237-5.502-19.987,1.843-27.332c3.932-3.933,9.16-6.098,14.726-6.098c5.561,0,10.789,2.166,14.723,6.099
			c3.965,3.965,6.128,9.24,6.093,14.856l-0.095,15.191l15.191-0.095c0.045-0.001,0.089-0.001,0.134-0.001
			c5.564,0,10.789,2.161,14.722,6.094c3.933,3.934,6.099,9.162,6.099,14.725c0,5.563-2.166,10.791-6.099,14.725
			c-7.345,7.345-19.096,8.135-27.329,1.842l-10.434-7.974l-72.853,72.852h-43.199L319.755,130.607z M95.664,255.064h320.674v30.054
			H95.664V255.064z M90.676,315.124h330.649l45.727,110.134H44.948L90.676,315.124z"/>
	</g>
</g>
<g>
</g>
<g>
</g>
<g>
</g>
<g>
</g>
<g>
</g>
<g>
</g>
<g>
</g>
<g>
</g>
<g>
</g>
<g>
</g>
<g>
</g>
<g>
</g>
<g>
</g>
<g>
</g>
<g>
</g>
</svg>
