<?xml version="1.0" encoding="iso-8859-1"?>
<!-- Generator: Adobe Illustrator 21.0.0, SVG Export Plug-In . SVG Version: 6.00 Build 0)  -->
<svg version="1.1" id="Capa_1" xmlns="http://www.w3.org/2000/svg" xmlns:xlink="http://www.w3.org/1999/xlink" x="0px" y="0px"
	 viewBox="0 0 512 512" style="enable-background:new 0 0 512 512;" xml:space="preserve">
<g>
	<g>
		<path d="M475,256c0-63.973-12.798-125.401-37.055-178.056L457.306,0H54.694l19.36,77.944C49.798,130.599,37,192.027,37,256
			c0,63.974,12.798,125.402,37.055,178.055L54.694,512h402.611l-19.36-77.945C462.202,381.401,475,319.973,475,256z M418.942,30
			l-8.569,34.5H101.627L93.058,30H418.942z M67,256c0-58.042,11.217-113.651,32.497-161.5h313.006
			C433.783,142.349,445,197.958,445,256s-11.217,113.651-32.497,161.499H99.497C78.217,369.651,67,314.042,67,256z M93.058,482
			l8.569-34.501h308.746L418.942,482H93.058z"/>
	</g>
</g>
<g>
	<g>
		<path d="M367.097,180.941c-6.436-6.437-14.283-10.929-22.847-13.192c-2.264-8.563-6.756-16.411-13.192-22.847
			c-9.597-9.598-22.357-14.884-35.938-14.885c-13.572,0.001-26.332,5.287-35.931,14.885c-14.667,14.667-18.62,36.542-11.149,55.036
			l-48.102,48.102c-18.496-7.471-40.368-3.518-55.036,11.149c-9.599,9.599-14.885,22.36-14.885,35.935s5.287,26.336,14.885,35.935
			c6.436,6.437,14.284,10.929,22.847,13.192c2.264,8.563,6.756,16.411,13.192,22.848c9.598,9.597,22.358,14.883,35.938,14.884
			c13.573-0.001,26.333-5.287,35.931-14.885c14.667-14.667,18.62-36.542,11.149-55.036l48.102-48.102
			c18.497,7.47,40.37,3.519,55.036-11.149c9.599-9.599,14.885-22.36,14.885-35.935C381.982,203.301,376.696,190.54,367.097,180.941z
			 M345.886,231.598c-7.342,7.342-19.089,8.135-27.325,1.841l-10.432-7.972l-82.661,82.661l7.972,10.432
			c6.293,8.234,5.501,19.981-1.841,27.324c-3.932,3.933-9.16,6.098-14.722,6.099c-5.561-0.001-10.789-2.166-14.721-6.098
			c-3.964-3.964-6.128-9.239-6.093-14.853l0.095-15.188l-15.188,0.095c-0.045,0.001-0.089,0.001-0.134,0.001
			c-5.563,0-10.786-2.161-14.719-6.094c-3.932-3.933-6.098-9.16-6.098-14.722s2.165-10.789,6.097-14.722
			c7.343-7.341,19.091-8.135,27.325-1.841l10.431,7.973l82.663-82.662l-7.973-10.432c-6.294-8.234-5.502-19.981,1.84-27.324
			c3.933-3.933,9.161-6.098,14.723-6.099c5.562,0.001,10.79,2.166,14.722,6.098c3.964,3.965,6.128,9.239,6.093,14.853l-0.095,15.188
			l15.188-0.095c0.045-0.001,0.089-0.001,0.134-0.001c5.563,0,10.786,2.161,14.719,6.094c3.932,3.933,6.098,9.16,6.098,14.722
			S349.818,227.665,345.886,231.598z"/>
	</g>
</g>
<g>
</g>
<g>
</g>
<g>
</g>
<g>
</g>
<g>
</g>
<g>
</g>
<g>
</g>
<g>
</g>
<g>
</g>
<g>
</g>
<g>
</g>
<g>
</g>
<g>
</g>
<g>
</g>
<g>
</g>
</svg>
