<?xml version="1.0" encoding="iso-8859-1"?>
<!-- Generator: Adobe Illustrator 21.0.0, SVG Export Plug-In . SVG Version: 6.00 Build 0)  -->
<svg version="1.1" id="Capa_1" xmlns="http://www.w3.org/2000/svg" xmlns:xlink="http://www.w3.org/1999/xlink" x="0px" y="0px"
	 viewBox="0 0 512 512" style="enable-background:new 0 0 512 512;" xml:space="preserve">
<g>
	<g>
		<path d="M447.269,426.031c41.807-46.899,64.675-106.717,64.675-170.058c0-68.365-26.622-132.638-74.964-180.98
			C388.638,26.65,324.365,0.028,256,0.028S123.362,26.65,75.02,74.992C26.679,123.333,0.056,187.607,0.056,255.971
			c0,63.342,22.869,123.16,64.675,170.058L0,490.762l21.21,21.21l64.731-64.731c46.9,41.807,106.718,64.675,170.058,64.675
			s123.16-22.869,170.058-64.676l64.731,64.731L512,490.762L447.269,426.031z M470.122,328.43l-27.875-11.546
			c4.796-14.629,7.926-30.006,9.136-45.914h30.063C480.158,290.742,476.334,310.021,470.122,328.43z M481.447,240.973h-30.064
			c-1.21-15.908-4.339-31.285-9.136-45.915l27.876-11.546C476.335,201.921,480.159,221.2,481.447,240.973z M458.644,155.8
			l-27.903,11.558c-7.132-14.007-15.901-27.044-26.05-38.866l21.329-21.329C439.092,122.054,450.018,138.391,458.644,155.8z
			 M421.956,255.971c0,40.366-14.493,77.407-38.539,106.207L277.21,255.971l106.207-106.207
			C407.464,178.566,421.956,215.606,421.956,255.971z M356.172,53.327c17.409,8.625,33.746,19.553,48.638,32.625l-21.329,21.329
			c-11.821-10.15-24.86-18.918-38.867-26.051L356.172,53.327z M270.999,30.525c19.773,1.287,39.052,5.112,57.46,11.323
			l-11.546,27.875c-14.629-4.796-30.006-7.926-45.914-9.136V30.525z M362.207,128.555L256,234.761L149.793,128.555
			c28.801-24.048,65.841-38.54,106.207-38.54S333.407,104.509,362.207,128.555z M234.79,255.971L128.584,362.178
			c-24.047-28.8-38.54-65.841-38.54-106.207c0-40.366,14.492-77.406,38.539-106.207L234.79,255.971z M241.002,30.524v30.064
			c-15.908,1.21-31.285,4.339-45.914,9.136l-11.546-27.876C201.95,35.637,221.23,31.812,241.002,30.524z M155.828,53.327
			l11.558,27.903c-14.007,7.132-27.045,15.901-38.867,26.051l-21.329-21.329C122.083,72.881,138.42,61.953,155.828,53.327z
			 M85.981,107.161l21.329,21.33c-10.15,11.821-18.917,24.86-26.05,38.866l-27.903-11.558
			C61.982,138.39,72.909,122.053,85.981,107.161z M41.877,183.513l27.875,11.547c-4.796,14.629-7.926,30.007-9.136,45.915H30.554
			C31.842,221.201,35.666,201.922,41.877,183.513z M30.554,270.97h30.063c1.21,15.908,4.339,31.285,9.136,45.914L41.877,328.43
			C35.666,310.021,31.842,290.743,30.554,270.97z M53.357,356.143l27.903-11.557c7.132,14.007,15.901,27.045,26.051,38.867
			l-21.329,21.329C72.909,389.889,61.982,373.552,53.357,356.143z M155.829,458.615c-17.409-8.625-33.745-19.552-48.638-32.624
			l21.328-21.329c11.821,10.15,24.86,18.919,38.867,26.05L155.829,458.615z M241.002,481.418
			c-19.773-1.287-39.052-5.112-57.46-11.323l11.546-27.875c14.629,4.796,30.006,7.926,45.914,9.136V481.418z M149.793,383.389
			L256,277.182l106.207,106.207c-28.801,24.047-65.841,38.539-106.207,38.539S178.594,407.435,149.793,383.389z M270.998,481.418
			v-30.063c15.908-1.21,31.285-4.339,45.914-9.136l11.547,27.875C310.05,476.305,290.77,480.13,270.998,481.418z M356.172,458.616
			l-11.557-27.903c14.007-7.132,27.045-15.901,38.867-26.05l21.329,21.329C389.917,439.062,373.58,449.99,356.172,458.616z
			 M426.019,404.781l-21.329-21.329c10.15-11.821,18.918-24.86,26.051-38.867l27.903,11.557
			C450.019,373.551,439.091,389.889,426.019,404.781z"/>
	</g>
</g>
<g>
</g>
<g>
</g>
<g>
</g>
<g>
</g>
<g>
</g>
<g>
</g>
<g>
</g>
<g>
</g>
<g>
</g>
<g>
</g>
<g>
</g>
<g>
</g>
<g>
</g>
<g>
</g>
<g>
</g>
</svg>
