<?xml version="1.0" encoding="iso-8859-1"?>
<!-- Generator: Adobe Illustrator 21.0.0, SVG Export Plug-In . SVG Version: 6.00 Build 0)  -->
<svg version="1.1" id="Capa_1" xmlns="http://www.w3.org/2000/svg" xmlns:xlink="http://www.w3.org/1999/xlink" x="0px" y="0px"
	 viewBox="0 0 512 512" style="enable-background:new 0 0 512 512;" xml:space="preserve">
<g>
	<g>
		<path d="M481.977,286.036V45.844H30.025v240.192H0v90.048h30.024v90.072h451.952v-90.072H512v-90.048H481.977z M411.651,75.844
			h40.326v50.064h-40.326V75.844z M411.651,155.909h40.326v50.063h-40.326V155.909z M411.651,235.972h40.326v50.064h-40.326V235.972
			z M341.325,75.844h40.326v50.064h-40.326V75.844z M341.325,155.909h40.326v50.063h-40.326V155.909z M341.325,235.972h40.326
			v50.064h-40.326V235.972z M271,75.844h40.325v50.064H271V75.844z M271,155.908h40.325v50.063H271V155.908z M271,235.972h40.325
			v50.064H271V235.972z M200.675,75.844H241v50.064h-40.325V75.844z M200.675,155.909H241v50.063h-40.325V155.909z M200.675,235.972
			H241v50.064h-40.325V235.972z M130.349,75.844h40.326v50.064h-40.326V75.844z M130.349,155.908h40.326v50.063h-40.326V155.908z
			 M130.349,235.972h40.326v50.064h-40.326V235.972z M60.025,75.844h40.324v50.064H60.025V75.844z M60.025,155.909h40.324v50.063
			H60.025V155.909z M60.025,235.972h40.324v50.064H60.025V235.972z M451.976,436.156H60.024v-60.072h391.952V436.156z M482,346.084
			H30v-30.048h452V346.084z"/>
	</g>
</g>
<g>
</g>
<g>
</g>
<g>
</g>
<g>
</g>
<g>
</g>
<g>
</g>
<g>
</g>
<g>
</g>
<g>
</g>
<g>
</g>
<g>
</g>
<g>
</g>
<g>
</g>
<g>
</g>
<g>
</g>
</svg>
