<?xml version="1.0" encoding="iso-8859-1"?>
<!-- Generator: Adobe Illustrator 21.0.0, SVG Export Plug-In . SVG Version: 6.00 Build 0)  -->
<svg version="1.1" id="Capa_1" xmlns="http://www.w3.org/2000/svg" xmlns:xlink="http://www.w3.org/1999/xlink" x="0px" y="0px"
	 viewBox="0 0 512 512" style="enable-background:new 0 0 512 512;" xml:space="preserve">
<g>
	<g>
		<path d="M477.222,153.884c-14.031-24.028-31.926-45.592-52.782-63.836H460V0H52v90.048h35.56
			c-20.856,18.244-38.75,39.808-52.782,63.836C12.026,192.846,0,237.417,0,282.777c0,47.857,13.294,94.534,38.445,134.985
			c24.45,39.321,59.088,71.329,100.17,92.563l3.24,1.675h228.29l3.24-1.675c41.082-21.233,75.72-53.241,100.169-92.563
			C498.706,377.312,512,330.635,512,282.777C512,237.417,499.974,192.846,477.222,153.884z M82,60.048V30h348v30.048H82z
			 M137.99,90.048h236.02c30.841,18.929,56.847,45.114,75.56,76.082c-6.644-1.955-12.806-4.137-19.12-6.373
			c-22.021-7.797-44.791-15.86-89.729-15.86c-44.939,0-67.71,8.063-89.73,15.86c-20.535,7.271-39.933,14.14-79.717,14.14
			c-39.782,0-59.179-6.868-79.713-14.14c-6.529-2.312-13.182-4.664-20.513-6.827C88.808,127.697,111.634,106.224,137.99,90.048z
			 M362.788,482H149.212c-27.706-14.883-51.957-35.385-71.273-60.072h356.122C414.745,446.615,390.494,467.117,362.788,482z
			 M280.024,329.838c0-23.063,16.809-44.21,27.815-55.586c11.015,11.384,27.816,32.527,27.816,55.586
			c0.001,23.037-16.772,44.165-27.787,55.556C296.861,373.963,280.024,352.732,280.024,329.838z M364.84,318.75
			c12.899-4.55,26.491-5.766,36.063-5.932c-0.301,15.866-3.41,42.785-19.597,58.972c-10.182,10.182-24.469,15.202-37.621,17.6
			c14.384-19.634,21.971-40.146,21.971-59.552C365.656,326.178,365.374,322.476,364.84,318.75z M453.937,391.928h-50.374
			c33.252-34.577,27.059-92.814,26.776-95.302l-1.35-11.856l-11.857-1.35c-1.483-0.171-31.688-3.422-61.354,6.723
			c-3.827-7.843-8.734-15.653-14.687-23.309c-11.67-15.011-23.417-24.422-23.911-24.815l-9.339-7.43l-9.339,7.43
			c-0.494,0.393-12.241,9.805-23.911,24.815c-16.071,20.671-24.566,42.457-24.566,63.004c0,20.244,8.263,41.69,23.879,62.09H58.063
			C39.672,358.635,30,321.141,30,282.777c0-35.992,8.574-71.409,24.881-103.167c9.661,2.406,17.985,5.352,26.665,8.425
			c22.02,7.798,44.789,15.86,89.727,15.86c44.939,0,67.71-8.063,89.73-15.86c20.535-7.271,39.933-14.14,79.717-14.14
			s59.181,6.868,79.716,14.14c13.374,4.736,27.15,9.61,46.177,12.689c10.12,26.01,15.387,53.854,15.387,82.052
			C482,321.141,472.328,358.635,453.937,391.928z"/>
	</g>
</g>
<g>
</g>
<g>
</g>
<g>
</g>
<g>
</g>
<g>
</g>
<g>
</g>
<g>
</g>
<g>
</g>
<g>
</g>
<g>
</g>
<g>
</g>
<g>
</g>
<g>
</g>
<g>
</g>
<g>
</g>
</svg>
