<?xml version="1.0" encoding="iso-8859-1"?>
<!-- Generator: Adobe Illustrator 21.0.0, SVG Export Plug-In . SVG Version: 6.00 Build 0)  -->
<svg version="1.1" id="Capa_1" xmlns="http://www.w3.org/2000/svg" xmlns:xlink="http://www.w3.org/1999/xlink" x="0px" y="0px"
	 viewBox="0 0 512 512" style="enable-background:new 0 0 512 512;" xml:space="preserve">
<g>
	<g>
		<path d="M0,232.257v90.049h33.313l18.835,75.344c6.587,26.349,30.157,44.752,57.317,44.752h293.068
			c27.16,0,50.73-18.403,57.317-44.753l18.835-75.343H512v-90.049H0z M430.748,390.372c-3.243,12.971-14.845,22.029-28.214,22.029
			H109.466c-13.369,0-24.971-9.059-28.214-22.028l-17.016-68.067h383.529L430.748,390.372z M482,292.305H30v-30.049h452V292.305z"/>
	</g>
</g>
<g>
	<g>
		<path d="M266,113.808c0-7.818,1.459-11.042,3.667-15.923c2.821-6.237,6.333-14,6.333-28.287h-30
			c0,7.817-1.459,11.041-3.667,15.922c-2.821,6.237-6.333,14-6.333,28.288c0,14.287,3.512,22.05,6.333,28.287
			c2.208,4.881,3.667,8.104,3.667,15.922c0,7.815-1.458,11.039-3.666,15.918c-2.822,6.237-6.334,13.999-6.334,28.286h30
			c0-7.816,1.459-11.04,3.666-15.919c2.822-6.237,6.334-13.999,6.334-28.285c0-14.287-3.512-22.05-6.333-28.287
			C267.459,124.849,266,121.626,266,113.808z"/>
	</g>
</g>
<g>
	<g>
		<path d="M336.056,113.808c0-7.818,1.459-11.042,3.667-15.923c2.821-6.237,6.333-14,6.333-28.287h-30
			c0,7.817-1.459,11.041-3.667,15.922c-2.821,6.237-6.333,14-6.333,28.288c0,14.287,3.512,22.05,6.333,28.287
			c2.208,4.881,3.667,8.104,3.667,15.922c0,7.815-1.458,11.039-3.666,15.918c-2.823,6.237-6.334,13.999-6.334,28.286h30
			c0-7.816,1.459-11.04,3.666-15.919c2.822-6.237,6.334-13.999,6.334-28.285c0-14.287-3.512-22.05-6.333-28.287
			C337.515,124.849,336.056,121.626,336.056,113.808z"/>
	</g>
</g>
<g>
	<g>
		<path d="M195.944,113.808c0-7.818,1.459-11.042,3.667-15.923c2.821-6.237,6.333-14,6.333-28.287h-30
			c0,7.817-1.459,11.041-3.667,15.922c-2.821,6.237-6.333,14-6.333,28.288c0,14.287,3.512,22.05,6.333,28.287
			c2.208,4.881,3.667,8.104,3.667,15.922c0,7.815-1.458,11.039-3.666,15.918c-2.822,6.237-6.334,13.999-6.334,28.286h30
			c0-7.816,1.459-11.04,3.666-15.919c2.822-6.237,6.334-13.999,6.334-28.285c0-14.287-3.512-22.05-6.333-28.287
			C197.403,124.849,195.944,121.626,195.944,113.808z"/>
	</g>
</g>
<g>
</g>
<g>
</g>
<g>
</g>
<g>
</g>
<g>
</g>
<g>
</g>
<g>
</g>
<g>
</g>
<g>
</g>
<g>
</g>
<g>
</g>
<g>
</g>
<g>
</g>
<g>
</g>
<g>
</g>
</svg>
