<?xml version="1.0" encoding="iso-8859-1"?>
<!-- Generator: Adobe Illustrator 21.0.0, SVG Export Plug-In . SVG Version: 6.00 Build 0)  -->
<svg version="1.1" id="Capa_1" xmlns="http://www.w3.org/2000/svg" xmlns:xlink="http://www.w3.org/1999/xlink" x="0px" y="0px"
	 viewBox="0 0 512 512" style="enable-background:new 0 0 512 512;" xml:space="preserve">
<g>
	<g>
		<path d="M425.072,251.811l30.302,24.345L512,205.673L256,0.004L0,205.673l56.625,70.483l30.303-24.346V421.95H41.894v90.046
			h428.213V421.95h-45.035V251.811z M61.224,233.981L42.176,210.27L256,38.486L469.825,210.27l-19.049,23.711L256,77.499
			L61.224,233.981z M331.947,331.012h63.125v90.938h-63.073v-88.905C331.999,332.363,331.965,331.689,331.947,331.012z
			 M324.894,301.014c-12.11-25.94-38.429-43.966-68.895-43.966c-30.464,0-56.785,18.027-68.895,43.966h-70.178V227.71l21.952-17.635
			h234.243l21.95,17.635v73.304H324.894z M301.999,333.045v88.905h-91.998v-88.905c0-25.364,20.636-45.999,45.999-45.999
			S301.999,307.681,301.999,333.045z M180.053,331.012c-0.018,0.678-0.052,1.351-0.052,2.033v88.905h-63.073v-90.938H180.053z
			 M176.22,180.076L256,115.981l79.78,64.095H176.22z M440.107,451.95v30.047h-0.001H71.894V451.95H440.107z"/>
	</g>
</g>
<g>
</g>
<g>
</g>
<g>
</g>
<g>
</g>
<g>
</g>
<g>
</g>
<g>
</g>
<g>
</g>
<g>
</g>
<g>
</g>
<g>
</g>
<g>
</g>
<g>
</g>
<g>
</g>
<g>
</g>
</svg>
