<?xml version="1.0" encoding="iso-8859-1"?>
<!-- Generator: Adobe Illustrator 21.0.0, SVG Export Plug-In . SVG Version: 6.00 Build 0)  -->
<svg version="1.1" id="Capa_1" xmlns="http://www.w3.org/2000/svg" xmlns:xlink="http://www.w3.org/1999/xlink" x="0px" y="0px"
	 viewBox="0 0 512 512" style="enable-background:new 0 0 512 512;" xml:space="preserve">
<g>
	<g>
		<polygon points="271,120.061 271,90.024 241,90.024 241,120.061 210.964,120.061 210.964,150.061 241,150.061 241,180.097 
			271,180.097 271,150.061 301.036,150.061 301.036,120.061 		"/>
	</g>
</g>
<g>
	<g>
		<path d="M68.857,270.145v151.783h167.714V270.145H68.857z M206.571,391.928H98.857v-91.783h107.714V391.928z"/>
	</g>
</g>
<g>
	<g>
		<path d="M329.443,60.048C310.489,41.488,284.56,30.024,256,30.024s-54.489,11.463-73.443,30.023H0v421.928h512V60.048H329.443z
			 M256,60.024c41.375,0,75.036,33.661,75.036,75.036S297.375,210.097,256,210.097s-75.036-33.661-75.036-75.036
			S214.625,60.024,256,60.024z M30,90.048h131.111c-6.502,13.651-10.147,28.913-10.147,45.013c0,16.099,3.645,31.361,10.147,45.012
			H30V90.048z M413.143,451.977H305.429V300.145h107.714V451.977z M482,451.975h-38.857v-181.83H275.429v181.831H30V210.073h152.557
			c18.953,18.561,44.883,30.024,73.443,30.024s54.49-11.464,73.443-30.024H482V451.975z M482,180.073H350.89
			c6.501-13.65,10.147-28.913,10.147-45.012s-3.645-31.362-10.147-45.013H482V180.073z"/>
	</g>
</g>
<g>
</g>
<g>
</g>
<g>
</g>
<g>
</g>
<g>
</g>
<g>
</g>
<g>
</g>
<g>
</g>
<g>
</g>
<g>
</g>
<g>
</g>
<g>
</g>
<g>
</g>
<g>
</g>
<g>
</g>
</svg>
