<?xml version="1.0" encoding="iso-8859-1"?>
<!-- Generator: Adobe Illustrator 21.0.0, SVG Export Plug-In . SVG Version: 6.00 Build 0)  -->
<svg version="1.1" id="Capa_1" xmlns="http://www.w3.org/2000/svg" xmlns:xlink="http://www.w3.org/1999/xlink" x="0px" y="0px"
	 viewBox="0 0 512 512" style="enable-background:new 0 0 512 512;" xml:space="preserve">
<g>
	<g>
		<path d="M512,511.989l-46.377-60.044h40.087L181.017,31.569C159.549,3.775,124.199-6.854,90.965,4.486
			C57.727,15.828,36.25,45.849,36.25,80.968v5.016H0v29.998h36.25v176.147c0,85.134,66.913,154.926,150.909,159.565v60.297h29.998
			v-60.044h30.046v60.044H277.2v-60.044h30.046v60.044H512z M337.244,481.992v-30.046h90.477l23.205,30.046H337.244z
			 M216.309,126.335L216.309,126.335l181.989,235.617H286.133c-38.501,0-69.824-31.324-69.824-69.825V126.335z M196.067,421.948
			c-71.583,0-129.819-58.237-129.819-129.82V80.968c0-26.802,17.772-42.416,34.403-48.091c5.176-1.766,11.023-2.837,17.122-2.837
			c13.501,0,28.218,5.256,39.503,19.867l29.035,37.591v204.629c0,55.042,44.78,99.823,99.822,99.823h135.334l23.17,29.998H196.067z"
			/>
	</g>
</g>
<g>
	<g>
		<rect x="96.283" y="85.983" width="30.018" height="29.998"/>
	</g>
</g>
<g>
</g>
<g>
</g>
<g>
</g>
<g>
</g>
<g>
</g>
<g>
</g>
<g>
</g>
<g>
</g>
<g>
</g>
<g>
</g>
<g>
</g>
<g>
</g>
<g>
</g>
<g>
</g>
<g>
</g>
</svg>
