<?xml version="1.0" encoding="iso-8859-1"?>
<!-- Generator: Adobe Illustrator 21.0.0, SVG Export Plug-In . SVG Version: 6.00 Build 0)  -->
<svg version="1.1" id="Capa_1" xmlns="http://www.w3.org/2000/svg" xmlns:xlink="http://www.w3.org/1999/xlink" x="0px" y="0px"
	 viewBox="0 0 512 512" style="enable-background:new 0 0 512 512;" xml:space="preserve">
<g>
	<g>
		<path d="M416.913,0L51.923,364.99l-2.365,76.237L0,490.785L21.215,512l49.558-49.558l76.237-2.365L512,95.087L416.913,0z
			 M427.103,137.552l-21.25,21.25l-26.327-26.328L358.31,153.69l26.327,26.328l-21.249,21.249l-26.328-26.328l-21.216,21.215
			l26.328,26.328l-21.25,21.25l-26.327-26.328l-21.215,21.215l26.327,26.328l-21.249,21.249l-26.328-26.328l-21.215,21.215
			l26.328,26.328l-21.249,21.249l-26.327-26.328L188.45,323.55l26.328,26.328l-21.25,21.25L167.2,344.801l-21.215,21.215
			l26.327,26.328l-38.112,38.112l-54.342,1.685l1.687-54.341L416.913,42.432l52.655,52.655l-21.249,21.249l-26.328-26.328
			l-21.215,21.215L427.103,137.552z"/>
	</g>
</g>
<g>
</g>
<g>
</g>
<g>
</g>
<g>
</g>
<g>
</g>
<g>
</g>
<g>
</g>
<g>
</g>
<g>
</g>
<g>
</g>
<g>
</g>
<g>
</g>
<g>
</g>
<g>
</g>
<g>
</g>
</svg>
