<?xml version="1.0" encoding="iso-8859-1"?>
<!-- Generator: Adobe Illustrator 21.0.0, SVG Export Plug-In . SVG Version: 6.00 Build 0)  -->
<svg version="1.1" id="Capa_1" xmlns="http://www.w3.org/2000/svg" xmlns:xlink="http://www.w3.org/1999/xlink" x="0px" y="0px"
	 viewBox="0 0 511.999 511.999" style="enable-background:new 0 0 511.999 511.999;" xml:space="preserve">
<g>
	<g>
		<path d="M481.962,101.931c0-29.254-17.667-54.878-45.008-65.279c-27.342-10.403-57.573-3.001-77.018,18.853L0,460.051
			l22.414,19.942l89.089-100.131h125.626v44.945h30.002v-44.945h30.05v44.945h30.002V379.64
			c86.102-4.455,154.78-75.904,154.78-163.095v-74.971h30.038v-30.001h-30.037V101.931z M451.96,216.547
			c0.001,73.509-59.804,133.314-133.314,133.314h-1.157c-0.878-5.843-1.328-11.77-1.328-17.722
			c0-65.107,52.969-118.077,118.077-118.077c5.951,0,11.878,0.45,17.722,1.328V216.547z M451.961,185.121
			c-5.866-0.701-11.786-1.062-17.722-1.062c-81.651,0-148.079,66.428-148.079,148.079c0,5.936,0.361,11.856,1.062,17.722H138.196
			L382.35,75.447c13.462-15.132,31.523-15.479,43.935-10.755c12.413,4.722,25.675,16.985,25.675,37.239V185.121z"/>
	</g>
</g>
<g>
	<g>
		<rect x="391.901" y="111.576" width="30.022" height="30.002"/>
	</g>
</g>
<g>
</g>
<g>
</g>
<g>
</g>
<g>
</g>
<g>
</g>
<g>
</g>
<g>
</g>
<g>
</g>
<g>
</g>
<g>
</g>
<g>
</g>
<g>
</g>
<g>
</g>
<g>
</g>
<g>
</g>
</svg>
