<?xml version="1.0" encoding="iso-8859-1"?>
<!-- Generator: Adobe Illustrator 21.0.0, SVG Export Plug-In . SVG Version: 6.00 Build 0)  -->
<svg version="1.1" id="Capa_1" xmlns="http://www.w3.org/2000/svg" xmlns:xlink="http://www.w3.org/1999/xlink" x="0px" y="0px"
	 viewBox="0 0 512 512" style="enable-background:new 0 0 512 512;" xml:space="preserve">
<g>
	<g>
		<path d="M481.077,240.994L438.625,73.018h-91.637V12.982H165.012v60.036H73.375L30.923,240.994H0v90.048h30.923l42.452,167.976
			h365.249l42.452-167.976H512v-90.048H481.077z M195.012,42.982h121.976v30.036H195.012V42.982z M96.737,103.018h318.526
			l34.871,137.976H61.866L96.737,103.018z M415.263,469.018H96.737L61.866,331.042h388.267L415.263,469.018z M482,301.042H30
			v-30.048h452V301.042z"/>
	</g>
</g>
<g>
	<g>
		<rect x="134.99" y="133.05" width="30" height="77.904"/>
	</g>
</g>
<g>
	<g>
		<rect x="205.66" y="133.05" width="30" height="77.904"/>
	</g>
</g>
<g>
	<g>
		<rect x="276.34" y="133.05" width="30" height="77.904"/>
	</g>
</g>
<g>
	<g>
		<rect x="347.01" y="133.05" width="30" height="77.904"/>
	</g>
</g>
<g>
	<g>
		<rect x="134.99" y="361.08" width="30" height="77.904"/>
	</g>
</g>
<g>
	<g>
		<rect x="205.66" y="361.08" width="30" height="77.904"/>
	</g>
</g>
<g>
	<g>
		<rect x="276.34" y="361.08" width="30" height="77.904"/>
	</g>
</g>
<g>
	<g>
		<rect x="347.01" y="361.08" width="30" height="77.904"/>
	</g>
</g>
<g>
</g>
<g>
</g>
<g>
</g>
<g>
</g>
<g>
</g>
<g>
</g>
<g>
</g>
<g>
</g>
<g>
</g>
<g>
</g>
<g>
</g>
<g>
</g>
<g>
</g>
<g>
</g>
<g>
</g>
</svg>
