<?xml version="1.0" encoding="iso-8859-1"?>
<!-- Generator: Adobe Illustrator 21.0.0, SVG Export Plug-In . SVG Version: 6.00 Build 0)  -->
<svg version="1.1" id="Capa_1" xmlns="http://www.w3.org/2000/svg" xmlns:xlink="http://www.w3.org/1999/xlink" x="0px" y="0px"
	 viewBox="0 0 512 512" style="enable-background:new 0 0 512 512;" xml:space="preserve">
<g>
	<g>
		<path d="M479.676,75.046H361.916V15.007h-212.01v60.039H42.157l-7.094,46.301H0v329.345h35.064l7.094,46.301h437.519L512,286.019
			L479.676,75.046z M179.908,45.008h152.007v30.037H179.908V45.008z M30.001,151.348h30.816l7.094-46.301H453.92l25.429,165.971
			H30.001V151.348z M453.92,466.991H67.912l-7.094-46.301H30.001V301.02h449.349L453.92,466.991z"/>
	</g>
</g>
<g>
	<g>
		<rect x="118.955" y="151.357" width="30.001" height="89.624"/>
	</g>
</g>
<g>
	<g>
		<rect x="179.938" y="151.357" width="30.001" height="89.624"/>
	</g>
</g>
<g>
	<g>
		<rect x="240.911" y="151.357" width="30.001" height="89.624"/>
	</g>
</g>
<g>
	<g>
		<rect x="301.894" y="151.357" width="30.001" height="89.624"/>
	</g>
</g>
<g>
	<g>
		<rect x="362.866" y="151.357" width="30.001" height="89.624"/>
	</g>
</g>
<g>
	<g>
		<rect x="118.955" y="331.055" width="30.001" height="89.624"/>
	</g>
</g>
<g>
	<g>
		<rect x="179.938" y="331.055" width="30.001" height="89.624"/>
	</g>
</g>
<g>
	<g>
		<rect x="240.911" y="331.055" width="30.001" height="89.624"/>
	</g>
</g>
<g>
	<g>
		<rect x="301.894" y="331.055" width="30.001" height="89.624"/>
	</g>
</g>
<g>
	<g>
		<rect x="362.866" y="331.055" width="30.001" height="89.624"/>
	</g>
</g>
<g>
</g>
<g>
</g>
<g>
</g>
<g>
</g>
<g>
</g>
<g>
</g>
<g>
</g>
<g>
</g>
<g>
</g>
<g>
</g>
<g>
</g>
<g>
</g>
<g>
</g>
<g>
</g>
<g>
</g>
</svg>
