<?xml version="1.0" encoding="iso-8859-1"?>
<!-- Generator: Adobe Illustrator 21.0.0, SVG Export Plug-In . SVG Version: 6.00 Build 0)  -->
<svg version="1.1" id="Capa_1" xmlns="http://www.w3.org/2000/svg" xmlns:xlink="http://www.w3.org/1999/xlink" x="0px" y="0px"
	 viewBox="0 0 512 512" style="enable-background:new 0 0 512 512;" xml:space="preserve">
<g>
	<g>
		<path d="M360.42,94.414c-6.97-34.218-37.295-60.048-73.54-60.048h-61.76c-36.245,0-66.57,25.829-73.54,60.048H0v383.219h512
			V94.414H360.42z M225.12,64.367h61.76c19.581,0,36.276,12.562,42.471,30.048H182.649C188.844,76.929,205.539,64.367,225.12,64.367
			z M60.048,447.633H30V124.414h30.048V447.633z M421.952,447.633H90.048V124.414h331.904V447.633z M482,447.633h-30.048V124.414
			H482V447.633z"/>
	</g>
</g>
<g>
	<g>
		<path d="M301.025,240.191v-60.096h-90.049v60.096h-60.903l-0.001,90.048h60.904v61.712h90.049V330.24h60.903l0.001-90.048H301.025
			z M331.927,300.24h-60.903v61.712h-30.049V300.24h-60.904l0.001-30.048h60.903v-60.096h30.049v60.096h60.904L331.927,300.24z"/>
	</g>
</g>
<g>
</g>
<g>
</g>
<g>
</g>
<g>
</g>
<g>
</g>
<g>
</g>
<g>
</g>
<g>
</g>
<g>
</g>
<g>
</g>
<g>
</g>
<g>
</g>
<g>
</g>
<g>
</g>
<g>
</g>
</svg>
