<?xml version="1.0" encoding="iso-8859-1"?>
<!-- Generator: Adobe Illustrator 21.0.0, SVG Export Plug-In . SVG Version: 6.00 Build 0)  -->
<svg version="1.1" id="Capa_1" xmlns="http://www.w3.org/2000/svg" xmlns:xlink="http://www.w3.org/1999/xlink" x="0px" y="0px"
	 viewBox="0 0 512 512" style="enable-background:new 0 0 512 512;" xml:space="preserve">
<g>
	<g>
		<path d="M512,66.218L445.782,0l-62.024,46.054l-21.627-21.627l-70.755,30.71L0,312.836L199.165,512l256.124-289.595l1.576-1.783
			l30.709-70.754l-21.627-21.627L512,66.218z M197.824,468.237L43.763,314.176l43.031-38.057L235.88,425.208L197.824,468.237z
			 M255.791,402.697L109.303,256.21l124.055-109.717l132.148,132.148L255.791,402.697z M385.417,256.13L255.87,126.583
			l43.031-38.057l124.573,124.573L385.417,256.13z M439.072,186.277L325.723,72.929l29.629-12.86l96.58,96.579L439.072,186.277z
			 M444.506,106.801l-39.307-39.306l37.679-27.978l29.604,29.604L444.506,106.801z"/>
	</g>
</g>
<g>
</g>
<g>
</g>
<g>
</g>
<g>
</g>
<g>
</g>
<g>
</g>
<g>
</g>
<g>
</g>
<g>
</g>
<g>
</g>
<g>
</g>
<g>
</g>
<g>
</g>
<g>
</g>
<g>
</g>
</svg>
