<?xml version="1.0" encoding="iso-8859-1"?>
<!-- Generator: Adobe Illustrator 21.0.0, SVG Export Plug-In . SVG Version: 6.00 Build 0)  -->
<svg version="1.1" id="Capa_1" xmlns="http://www.w3.org/2000/svg" xmlns:xlink="http://www.w3.org/1999/xlink" x="0px" y="0px"
	 viewBox="0 0 512 512" style="enable-background:new 0 0 512 512;" xml:space="preserve">
<g>
	<g>
		<path d="M478.561,33.439C456.998,11.875,428.328,0,397.833,0s-59.165,11.875-80.728,33.439L33.439,317.105
			C11.875,338.668,0,367.338,0,397.833s11.875,59.165,33.439,80.728C55.002,500.125,83.672,512,114.167,512
			s59.165-11.875,80.728-33.439l283.666-283.666C500.125,173.332,512,144.662,512,114.167S500.125,55.002,478.561,33.439z
			 M457.348,173.682L173.682,457.348c-32.817,32.816-86.213,32.816-119.03,0c-32.816-32.817-32.816-86.213,0-119.03L338.318,54.652
			c16.409-16.408,37.962-24.612,59.515-24.612s43.106,8.204,59.515,24.612C490.164,87.469,490.164,140.865,457.348,173.682z"/>
	</g>
</g>
<g>
	<g>
		<rect x="123.967" y="400.474" transform="matrix(0.7071 -0.7071 0.7071 0.7071 -253.0786 219.9603)" width="30.02" height="30"/>
	</g>
</g>
<g>
	<g>
		<rect x="81.514" y="358.005" transform="matrix(0.7071 -0.7071 0.7071 0.7071 -235.4826 177.5028)" width="30.02" height="30"/>
	</g>
</g>
<g>
	<g>
		<rect x="166.451" y="358.012" transform="matrix(0.7071 -0.7071 0.7071 0.7071 -210.6102 237.5642)" width="30.02" height="30"/>
	</g>
</g>
<g>
	<g>
		<rect x="123.964" y="315.551" transform="matrix(0.7071 -0.7071 0.7071 0.7071 -193.0302 195.0854)" width="30.02" height="30"/>
	</g>
</g>
<g>
	<g>
		<rect x="357.996" y="166.439" transform="matrix(0.7071 -0.7071 0.7071 0.7071 -19.0453 316.8979)" width="30.02" height="30"/>
	</g>
</g>
<g>
	<g>
		<rect x="315.556" y="123.972" transform="matrix(0.7071 -0.7071 0.7071 0.7071 -1.4472 274.4495)" width="30.02" height="30"/>
	</g>
</g>
<g>
	<g>
		<rect x="400.473" y="123.979" transform="matrix(0.7071 -0.7071 0.7071 0.7071 23.4192 334.4963)" width="30.02" height="30"/>
	</g>
</g>
<g>
	<g>
		<rect x="358.013" y="81.522" transform="matrix(0.7071 -0.7071 0.7071 0.7071 41.0048 292.0378)" width="30.02" height="30"/>
	</g>
</g>
<g>
	<g>
		<path d="M281.665,153.799L153.798,281.666l76.536,76.536l127.867-127.867L281.665,153.799z M196.225,281.666l85.44-85.44
			l34.109,34.109l-85.44,85.44L196.225,281.666z"/>
	</g>
</g>
<g>
</g>
<g>
</g>
<g>
</g>
<g>
</g>
<g>
</g>
<g>
</g>
<g>
</g>
<g>
</g>
<g>
</g>
<g>
</g>
<g>
</g>
<g>
</g>
<g>
</g>
<g>
</g>
<g>
</g>
</svg>
