<?xml version="1.0" encoding="iso-8859-1"?>
<!-- Generator: Adobe Illustrator 21.0.0, SVG Export Plug-In . SVG Version: 6.00 Build 0)  -->
<svg version="1.1" id="Capa_1" xmlns="http://www.w3.org/2000/svg" xmlns:xlink="http://www.w3.org/1999/xlink" x="0px" y="0px"
	 viewBox="0 0 512 512" style="enable-background:new 0 0 512 512;" xml:space="preserve">
<g>
	<g>
		<path d="M28.666,0v512h454.667V0H28.666z M422.666,30h30.667v30.048h-30.667V30z M362,30h30.667v30.048H362V30z M301.333,30H332
			v30.048h-30.667V30z M240.666,30h30.667v30.048h-30.667V30z M180,30h30.667v30.048H180V30z M119.333,30H150v30.048h-30.667V30z
			 M58.666,30h30.666v30.048H58.666V30z M58.666,90.048h394.666v331.904H58.666V90.048z M453.333,482H58.666v-30.048h394.667V482z"
			/>
	</g>
</g>
<g>
	<g>
		<path d="M387.632,230.517c0-13.573-5.285-26.334-14.882-35.933l-0.484-0.484l-0.044-0.037
			c-9.536-9.27-22.081-14.366-35.408-14.366c-20.742,0-39.005,12.673-46.8,31.033h-68.026c-7.795-18.36-26.058-31.033-46.8-31.033
			c-13.574,0-26.336,5.286-35.935,14.885c-9.598,9.599-14.884,22.361-14.884,35.935c0,9.102,2.372,17.827,6.827,25.483
			c-4.456,7.656-6.828,16.381-6.828,25.483c0,13.573,5.285,26.334,14.882,35.933l0.484,0.484l0.044,0.037
			c9.537,9.27,22.082,14.366,35.408,14.365c20.742,0,39.005-12.672,46.8-31.032h68.026c7.795,18.36,26.058,31.033,46.801,31.033
			c13.575,0,26.336-5.287,35.934-14.885c9.599-9.598,14.885-22.36,14.885-35.935c0-9.102-2.372-17.827-6.827-25.483
			C385.26,248.344,387.632,239.619,387.632,230.517z M351.439,266.672c3.994,3.945,6.194,9.205,6.194,14.811
			c0,5.561-2.166,10.789-6.098,14.722c-3.932,3.932-9.16,6.098-14.721,6.098c-10.385,0-19.25-7.747-20.624-18.02l-1.739-13.013
			h-116.9l-1.739,13.013c-1.373,10.273-10.239,18.02-20.625,18.02c-5.56,0-10.788-2.165-14.72-6.097l-0.081-0.082
			c-3.881-3.923-6.018-9.118-6.018-14.641c0-5.606,2.2-10.866,6.194-14.811L171.367,256l-10.806-10.672
			c-3.994-3.945-6.194-9.205-6.194-14.811c0-5.561,2.166-10.79,6.098-14.722c3.933-3.932,9.161-6.098,14.722-6.098
			c10.385,0,19.25,7.747,20.624,18.02l1.739,13.013h116.9l1.739-13.013c1.373-10.273,10.239-18.02,20.624-18.02
			c5.561,0,10.788,2.166,14.721,6.097l0.081,0.082c3.881,3.923,6.018,9.118,6.018,14.641c0,5.606-2.2,10.866-6.194,14.811
			L340.632,256L351.439,266.672z"/>
	</g>
</g>
<g>
</g>
<g>
</g>
<g>
</g>
<g>
</g>
<g>
</g>
<g>
</g>
<g>
</g>
<g>
</g>
<g>
</g>
<g>
</g>
<g>
</g>
<g>
</g>
<g>
</g>
<g>
</g>
<g>
</g>
</svg>
