<?xml version="1.0" encoding="iso-8859-1"?>
<!-- Generator: Adobe Illustrator 21.0.0, SVG Export Plug-In . SVG Version: 6.00 Build 0)  -->
<svg version="1.1" id="Capa_1" xmlns="http://www.w3.org/2000/svg" xmlns:xlink="http://www.w3.org/1999/xlink" x="0px" y="0px"
	 viewBox="0 0 512.001 512.001" style="enable-background:new 0 0 512.001 512.001;" xml:space="preserve">
<g>
	<g>
		<path d="M490.888,128.873L362.015,0l-21.212,21.212l94.942,94.942l-21.389,21.389l-94.942-94.942l-21.212,21.212l94.942,94.942
			l-21.389,21.389l-94.942-94.942l-21.212,21.212l94.942,94.942l-21.389,21.39l-94.942-94.943l-21.212,21.212l94.942,94.943
			l-21.389,21.389l-94.942-94.942l-21.212,21.212l94.942,94.942l-21.389,21.389l-94.942-94.942l-21.212,21.212l94.942,94.942
			l-21.389,21.389l-94.943-94.942l-21.212,21.212l94.943,94.942l-21.389,21.389l-94.942-94.942l-21.212,21.212l94.942,94.942
			l-21.389,21.389l-94.942-94.942L0,362.016l128.873,128.873C142.487,504.503,160.588,512,179.841,512
			c19.254,0,37.354-7.497,50.968-21.112l260.081-260.08c13.614-13.614,21.112-31.715,21.112-50.968S504.503,142.487,490.888,128.873
			z M469.677,209.597l-260.081,260.08c-7.948,7.949-18.516,12.325-29.756,12.325c-11.239,0-21.808-4.377-29.756-12.325
			l-12.718-12.718l319.592-319.592l12.719,12.719c7.948,7.948,12.325,18.516,12.325,29.755
			C482.002,191.082,477.624,201.649,469.677,209.597z"/>
	</g>
</g>
<g>
</g>
<g>
</g>
<g>
</g>
<g>
</g>
<g>
</g>
<g>
</g>
<g>
</g>
<g>
</g>
<g>
</g>
<g>
</g>
<g>
</g>
<g>
</g>
<g>
</g>
<g>
</g>
<g>
</g>
</svg>
