<?xml version="1.0" encoding="iso-8859-1"?>
<!-- Generator: Adobe Illustrator 21.0.0, SVG Export Plug-In . SVG Version: 6.00 Build 0)  -->
<svg version="1.1" id="Capa_1" xmlns="http://www.w3.org/2000/svg" xmlns:xlink="http://www.w3.org/1999/xlink" x="0px" y="0px"
	 viewBox="0 0 511.999 511.999" style="enable-background:new 0 0 511.999 511.999;" xml:space="preserve">
<g>
	<g>
		<path d="M164.507,393.165c-3.158-11.784-10.716-21.636-21.285-27.737c-10.567-6.102-22.878-7.722-34.664-4.564
			c-11.785,3.159-21.637,10.717-27.736,21.284c-6.102,10.567-7.723,22.878-4.564,34.664c3.158,11.786,10.717,21.637,21.284,27.737
			c7.039,4.064,14.851,6.14,22.767,6.14c3.968,0,7.963-0.521,11.897-1.576c11.786-3.158,21.638-10.717,27.737-21.284
			C166.045,417.262,167.665,404.952,164.507,393.165z M133.963,412.832c-2.095,3.627-5.477,6.223-9.522,7.307
			c-4.047,1.083-8.272,0.527-11.9-1.567c-3.628-2.095-6.224-5.477-7.308-9.523c-1.084-4.046-0.527-8.271,1.567-11.9
			c2.095-3.628,5.477-6.223,9.522-7.308c1.351-0.362,2.722-0.541,4.084-0.541c2.718,0,5.4,0.713,7.816,2.108
			c3.629,2.095,6.224,5.477,7.309,9.523C136.615,404.977,136.058,409.203,133.963,412.832z"/>
	</g>
</g>
<g>
	<g>
		<path d="M431.177,382.15c-6.101-10.568-15.951-18.127-27.736-21.286c-11.788-3.158-24.098-1.537-34.664,4.563
			c-10.567,6.102-18.127,15.952-21.285,27.738s-1.537,24.098,4.564,34.665v-0.001c6.101,10.567,15.951,18.126,27.737,21.285
			c3.937,1.055,7.93,1.576,11.897,1.576c7.916,0,15.728-2.076,22.767-6.14c10.566-6.101,18.126-15.952,21.284-27.737
			C438.898,405.027,437.277,392.717,431.177,382.15z M406.765,409.049c-1.084,4.046-3.68,7.429-7.308,9.522s-7.856,2.65-11.9,1.567
			c-4.047-1.084-7.429-3.68-9.522-7.307v-0.001c-2.095-3.628-2.651-7.854-1.567-11.9c1.085-4.046,3.68-7.428,7.309-9.523
			c2.417-1.395,5.099-2.108,7.816-2.108c1.362,0,2.733,0.179,4.084,0.541c4.047,1.084,7.429,3.68,9.523,7.309
			C407.292,400.776,407.849,405.002,406.765,409.049z"/>
	</g>
</g>
<g>
	<g>
		<path d="M484.277,351.492c-14.27-24.717-37.348-42.407-64.979-49.81c-27.634-7.406-56.463-3.623-81.18,10.646
			c-1.575,0.91-3.128,1.86-4.655,2.849l-18.839-32.631l90.545-156.828c11.559-20.02,14.629-43.342,8.646-65.669
			c-5.982-22.329-20.303-40.991-40.322-52.548L360.503,0L255.998,181.007L151.495,0l-12.989,7.5
			c-20.02,11.558-34.34,30.22-40.322,52.548c-5.983,22.329-2.913,45.65,8.646,65.669l90.545,156.829l-18.839,32.63
			c-1.527-0.988-3.08-1.938-4.656-2.849c-24.716-14.27-53.544-18.052-81.179-10.646c-27.632,7.404-50.71,25.094-64.979,49.81
			c-14.27,24.717-18.052,53.546-10.646,81.179c7.404,27.632,25.094,50.709,49.81,64.979c16.451,9.498,34.721,14.35,53.251,14.349
			c9.31,0,18.688-1.226,27.929-3.702c27.47-7.361,50.439-24.889,64.728-49.378l2.263-3.395v-0.522L256,384.085l40.946,70.92v0.523
			l2.261,3.391c14.289,24.49,37.259,42.018,64.728,49.378c9.242,2.477,18.617,3.702,27.929,3.702
			c18.528,0,36.802-4.852,53.251-14.349c24.717-14.27,42.406-37.347,49.81-64.979C502.328,405.038,498.548,376.208,484.277,351.492z
			 M132.808,110.718c-7.553-13.08-9.558-28.317-5.649-42.907c2.579-9.624,7.529-18.207,14.355-25.102l97.164,168.294l-23.986,41.544
			L132.808,110.718z M187.066,443.484l-0.137,0.237c-10.274,17.655-26.824,30.293-46.63,35.601
			c-19.892,5.332-40.638,2.614-58.417-7.651c-17.777-10.263-30.503-26.871-35.833-46.765c-5.331-19.893-2.614-40.639,7.65-58.416
			c10.263-17.777,26.872-30.503,46.765-35.834c6.659-1.784,13.41-2.667,20.117-2.667c13.329,0,26.472,3.488,38.298,10.316
			c4.999,2.886,9.664,6.326,13.87,10.225l13.786,12.783L370.483,42.71c6.827,6.895,11.776,15.477,14.355,25.102
			c3.909,14.588,1.903,29.826-5.649,42.907L187.066,443.484z M465.948,424.907c-5.33,19.893-18.056,36.501-35.833,46.765
			c-17.778,10.264-38.523,12.98-58.417,7.651c-19.801-5.306-36.347-17.937-46.621-35.585l-51.759-89.649l23.986-41.544
			l28.158,48.772l13.786-12.783c4.206-3.899,8.872-7.34,13.869-10.225c17.777-10.263,38.523-12.979,58.416-7.65
			c19.893,5.331,36.501,18.057,46.765,35.834C468.563,384.27,471.278,405.014,465.948,424.907z"/>
	</g>
</g>
<g>
</g>
<g>
</g>
<g>
</g>
<g>
</g>
<g>
</g>
<g>
</g>
<g>
</g>
<g>
</g>
<g>
</g>
<g>
</g>
<g>
</g>
<g>
</g>
<g>
</g>
<g>
</g>
<g>
</g>
</svg>
