<?xml version="1.0" encoding="iso-8859-1"?>
<!-- Generator: Adobe Illustrator 21.0.0, SVG Export Plug-In . SVG Version: 6.00 Build 0)  -->
<svg version="1.1" id="Capa_1" xmlns="http://www.w3.org/2000/svg" xmlns:xlink="http://www.w3.org/1999/xlink" x="0px" y="0px"
	 viewBox="0 0 511.999 511.999" style="enable-background:new 0 0 511.999 511.999;" xml:space="preserve">
<g>
	<g>
		<path d="M405.847,0l-21.213,21.213l21.239,21.239l-81.159,81.159l-42.469-42.469l-21.213,21.213l21.239,21.239L112.429,293.436
			l42.46,42.46L0,490.786l21.213,21.213l154.89-154.89l42.46,42.46l169.842-169.842l21.239,21.239l21.213-21.213l-42.469-42.469
			l81.16-81.16l21.238,21.24l21.213-21.213L405.847,0z M218.563,357.143l-63.707-63.707l21.247-21.247l31.828,31.828l21.213-21.213
			l-31.828-31.828l21.247-21.248l31.828,31.828l21.213-21.213l-31.828-31.828l21.247-21.247l31.828,31.828l21.213-21.213
			l-31.828-31.828l21.247-21.248l63.708,63.708L218.563,357.143z M367.174,166.072l-21.247-21.247l81.16-81.16l21.247,21.247
			L367.174,166.072z"/>
	</g>
</g>
<g>
</g>
<g>
</g>
<g>
</g>
<g>
</g>
<g>
</g>
<g>
</g>
<g>
</g>
<g>
</g>
<g>
</g>
<g>
</g>
<g>
</g>
<g>
</g>
<g>
</g>
<g>
</g>
<g>
</g>
</svg>
