<?xml version="1.0" encoding="iso-8859-1"?>
<!-- Generator: Adobe Illustrator 21.0.0, SVG Export Plug-In . SVG Version: 6.00 Build 0)  -->
<svg version="1.1" id="Capa_1" xmlns="http://www.w3.org/2000/svg" xmlns:xlink="http://www.w3.org/1999/xlink" x="0px" y="0px"
	 viewBox="0 0 512 512" style="enable-background:new 0 0 512 512;" xml:space="preserve">
<g>
	<g>
		<path d="M396.112,184.129v-30h-76.894L299.202,0h-86.403l-20.016,154.129h-76.894v30h40.044v30.048H115.9V512h280.2V214.177
			h-40.032v-30.048H396.112z M239.153,30h33.691l16.12,124.129h-65.932L239.153,30z M185.932,184.129h140.136v30.048H185.932
			V184.129z M366.099,244.177V482H145.9V244.177H366.099z"/>
	</g>
</g>
<g>
	<g>
		<path d="M266.252,288.717l-10.252-9.599l-10.252,9.599c-5.34,5-52.172,50.012-52.172,90.37c0,34.42,28.004,62.424,62.424,62.424
			s62.424-28.003,62.424-62.424C318.424,338.729,271.592,293.716,266.252,288.717z M255.999,411.511
			c-17.879,0-32.424-14.545-32.424-32.424c0-16.735,17.139-41.072,32.424-57.963c15.285,16.891,32.424,41.229,32.424,57.963
			C288.424,396.965,273.879,411.511,255.999,411.511z"/>
	</g>
</g>
<g>
</g>
<g>
</g>
<g>
</g>
<g>
</g>
<g>
</g>
<g>
</g>
<g>
</g>
<g>
</g>
<g>
</g>
<g>
</g>
<g>
</g>
<g>
</g>
<g>
</g>
<g>
</g>
<g>
</g>
</svg>
