<?xml version="1.0" encoding="iso-8859-1"?>
<!-- Generator: Adobe Illustrator 21.0.0, SVG Export Plug-In . SVG Version: 6.00 Build 0)  -->
<svg version="1.1" id="Capa_1" xmlns="http://www.w3.org/2000/svg" xmlns:xlink="http://www.w3.org/1999/xlink" x="0px" y="0px"
	 viewBox="0 0 512 512" style="enable-background:new 0 0 512 512;" xml:space="preserve">
<g>
	<g>
		<path d="M391.75,0L193.682,198.069l-33.721,83.241L0,441.273L70.727,512l159.961-159.961l83.242-33.721L512,120.25L391.75,0z
			 M70.727,469.587l-28.314-28.314l43.831-43.831l28.315,28.315L70.727,469.587z M297.029,292.807l-83.242,33.72l-78.022,78.021
			l-28.315-28.315l78.021-78.022l33.72-83.242L349.304,84.86l77.836,77.836L297.029,292.807z M370.51,63.654l21.24-21.24
			l77.836,77.836l-21.24,21.24L370.51,63.654z"/>
	</g>
</g>
<g>
	<g>
		
			<rect x="266.034" y="184.45" transform="matrix(0.7071 -0.7071 0.7071 0.7071 -49.4857 279.4215)" width="93.029" height="29.99"/>
	</g>
</g>
<g>
</g>
<g>
</g>
<g>
</g>
<g>
</g>
<g>
</g>
<g>
</g>
<g>
</g>
<g>
</g>
<g>
</g>
<g>
</g>
<g>
</g>
<g>
</g>
<g>
</g>
<g>
</g>
<g>
</g>
</svg>
