<?xml version="1.0" encoding="iso-8859-1"?>
<!-- Generator: Adobe Illustrator 21.0.0, SVG Export Plug-In . SVG Version: 6.00 Build 0)  -->
<svg version="1.1" id="Capa_1" xmlns="http://www.w3.org/2000/svg" xmlns:xlink="http://www.w3.org/1999/xlink" x="0px" y="0px"
	 viewBox="0 0 512 512" style="enable-background:new 0 0 512 512;" xml:space="preserve">
<g>
	<g>
		<path d="M473.555,121.016c-24.45-39.322-59.088-71.33-100.17-92.563l-3.24-1.675h-228.29l-3.24,1.675
			c-41.082,21.233-75.72,53.241-100.17,92.563C13.294,161.466,0,208.143,0,256s13.294,94.534,38.445,134.984
			c24.45,39.322,59.088,71.33,100.17,92.563l3.24,1.675h228.289l3.24-1.675c41.082-21.233,75.72-53.241,100.17-92.563
			C498.706,350.534,512,303.857,512,256S498.706,161.466,473.555,121.016z M149.212,56.778h213.576
			c34.889,18.741,64.328,46.367,85.289,80.079c0.517,0.831,1.022,1.669,1.528,2.506c-6.657-1.957-12.829-4.143-19.155-6.383
			c-22.021-7.797-44.791-15.86-89.73-15.86s-67.71,8.063-89.73,15.86c-20.535,7.271-39.933,14.14-79.717,14.14
			c-39.782,0-59.179-6.868-79.713-14.14c-6.531-2.313-13.188-4.666-20.523-6.83C91.334,97.287,118.097,73.492,149.212,56.778z
			 M448.077,375.144c-20.961,33.712-50.4,61.337-85.289,80.079H149.212c-34.889-18.741-64.328-46.367-85.289-80.079
			C41.73,339.452,30,298.253,30,256c0-36.083,8.562-71.394,24.881-103.167c9.661,2.406,17.985,5.352,26.665,8.426
			c22.02,7.797,44.789,15.86,89.727,15.86c44.939,0,67.71-8.063,89.73-15.86c20.535-7.271,39.933-14.14,79.717-14.14
			s59.182,6.868,79.717,14.14c13.375,4.736,27.153,9.611,46.185,12.69C476.742,199.94,482,227.732,482,256
			C482,298.253,470.27,339.452,448.077,375.144z"/>
	</g>
</g>
<g>
	<g>
		<path d="M414.865,298.891c-1.476-2.722-37.102-66.692-119.871-66.692c-49.189,0-81.727,22.593-100.342,41.497
			c-11.231-19.476-32.255-32.623-56.307-32.623h-25.321v129.933h25.321c24.052,0,45.076-13.147,56.307-32.623
			c18.616,18.904,51.154,41.497,100.342,41.497c82.769,0,118.395-63.97,119.871-66.693l3.874-7.148L414.865,298.891z
			 M173.135,309.519c-1.598,16.106-14.169,29.034-30.112,31.176v-69.31c15.943,2.142,28.513,15.07,30.112,31.176l-1.886,3.479
			L173.135,309.519z M305.654,349.415c-3.498,0.303-7.049,0.467-10.66,0.467c-26.94-0.001-50.758-8.449-70.79-25.11
			c-8.217-6.834-14.138-13.758-17.874-18.732c3.736-4.974,9.657-11.898,17.874-18.732c20.032-16.661,43.85-25.108,70.79-25.108
			c3.612,0,7.162,0.164,10.66,0.467c-6.123,13.507-9.317,28.185-9.317,43.374C296.337,321.23,299.531,335.908,305.654,349.415z
			 M365.785,324.772c-9.228,7.674-19.268,13.583-30.037,17.75c-6.174-11.102-9.411-23.531-9.411-36.482s3.237-25.381,9.411-36.482
			c10.769,4.166,20.81,10.075,30.037,17.75c8.222,6.838,14.145,13.766,17.875,18.731
			C379.924,311.013,374.003,317.938,365.785,324.772z"/>
	</g>
</g>
<g>
</g>
<g>
</g>
<g>
</g>
<g>
</g>
<g>
</g>
<g>
</g>
<g>
</g>
<g>
</g>
<g>
</g>
<g>
</g>
<g>
</g>
<g>
</g>
<g>
</g>
<g>
</g>
<g>
</g>
</svg>
