<?xml version="1.0" encoding="iso-8859-1"?>
<!-- Generator: Adobe Illustrator 21.0.0, SVG Export Plug-In . SVG Version: 6.00 Build 0)  -->
<svg version="1.1" id="Capa_1" xmlns="http://www.w3.org/2000/svg" xmlns:xlink="http://www.w3.org/1999/xlink" x="0px" y="0px"
	 viewBox="0 0 512 512" style="enable-background:new 0 0 512 512;" xml:space="preserve">
<g>
	<g>
		<path d="M0,0v512h512V0H0z M482,482H30V30h452V482z"/>
	</g>
</g>
<g>
	<g>
		<rect x="60.24" y="241" width="30.02" height="30"/>
	</g>
</g>
<g>
	<g>
		<rect x="120.49" y="241" width="30.02" height="30"/>
	</g>
</g>
<g>
	<g>
		<rect x="180.74" y="241" width="30.02" height="30"/>
	</g>
</g>
<g>
	<g>
		<rect x="240.99" y="241" width="30.02" height="30"/>
	</g>
</g>
<g>
	<g>
		<rect x="301.24" y="241" width="30.02" height="30"/>
	</g>
</g>
<g>
	<g>
		<rect x="361.49" y="241" width="30.02" height="30"/>
	</g>
</g>
<g>
	<g>
		<rect x="421.74" y="241" width="30.02" height="30"/>
	</g>
</g>
<g>
	<g>
		<rect x="241" y="421.74" width="30" height="30.02"/>
	</g>
</g>
<g>
	<g>
		<rect x="241" y="361.49" width="30" height="30.02"/>
	</g>
</g>
<g>
	<g>
		<rect x="241" y="301.24" width="30" height="30.02"/>
	</g>
</g>
<g>
	<g>
		<rect x="241" y="240.99" width="30" height="30.02"/>
	</g>
</g>
<g>
	<g>
		<rect x="241" y="180.74" width="30" height="30.02"/>
	</g>
</g>
<g>
	<g>
		<rect x="241" y="120.49" width="30" height="30.02"/>
	</g>
</g>
<g>
	<g>
		<rect x="241" y="60.24" width="30" height="30.02"/>
	</g>
</g>
<g>
	<g>
		<path d="M135.5,60C93.869,60,60,93.869,60,135.5S93.869,211,135.5,211s75.5-33.869,75.5-75.5S177.131,60,135.5,60z M135.5,181
			c-25.089,0-45.5-20.411-45.5-45.5S110.411,90,135.5,90s45.5,20.411,45.5,45.5S160.589,181,135.5,181z"/>
	</g>
</g>
<g>
	<g>
		<path d="M376.548,60c-41.631,0-75.5,33.869-75.5,75.5s33.869,75.5,75.5,75.5c41.631,0,75.5-33.869,75.5-75.5
			S418.179,60,376.548,60z M376.548,181c-25.089,0-45.5-20.411-45.5-45.5s20.411-45.5,45.5-45.5s45.5,20.411,45.5,45.5
			S401.637,181,376.548,181z"/>
	</g>
</g>
<g>
	<g>
		<path d="M135.5,301.048c-41.631,0-75.5,33.869-75.5,75.5c0,41.631,33.869,75.5,75.5,75.5s75.5-33.869,75.5-75.5
			C211,334.917,177.131,301.048,135.5,301.048z M135.5,422.048c-25.089,0-45.5-20.411-45.5-45.5s20.411-45.5,45.5-45.5
			s45.5,20.411,45.5,45.5S160.589,422.048,135.5,422.048z"/>
	</g>
</g>
<g>
	<g>
		<path d="M376.548,301.048c-41.631,0-75.5,33.869-75.5,75.5c0,41.631,33.869,75.5,75.5,75.5c41.631,0,75.5-33.869,75.5-75.5
			C452.048,334.917,418.179,301.048,376.548,301.048z M376.548,422.048c-25.089,0-45.5-20.411-45.5-45.5s20.411-45.5,45.5-45.5
			s45.5,20.411,45.5,45.5S401.637,422.048,376.548,422.048z"/>
	</g>
</g>
<g>
</g>
<g>
</g>
<g>
</g>
<g>
</g>
<g>
</g>
<g>
</g>
<g>
</g>
<g>
</g>
<g>
</g>
<g>
</g>
<g>
</g>
<g>
</g>
<g>
</g>
<g>
</g>
<g>
</g>
</svg>
