<?xml version="1.0" encoding="iso-8859-1"?>
<!-- Generator: Adobe Illustrator 21.0.0, SVG Export Plug-In . SVG Version: 6.00 Build 0)  -->
<svg version="1.1" id="Capa_1" xmlns="http://www.w3.org/2000/svg" xmlns:xlink="http://www.w3.org/1999/xlink" x="0px" y="0px"
	 viewBox="0 0 512 512" style="enable-background:new 0 0 512 512;" xml:space="preserve">
<g>
	<g>
		<path d="M467.562,65.12C409.399,6.956,315.366,5.984,256,62.203C196.636,5.984,102.604,6.955,44.437,65.12
			C15.782,93.776,0,131.876,0,172.401c0,40.525,15.781,78.625,44.437,107.28L256,491.245l211.563-211.564
			C496.219,251.026,512,212.926,512,172.401C512,131.876,496.218,93.776,467.562,65.12z M446.35,258.468L256,448.818L65.65,258.468
			C42.661,235.479,30,204.913,30,172.401c0-32.512,12.661-63.078,35.65-86.068c22.989-22.989,53.555-35.65,86.067-35.65
			c32.512,0,63.078,12.661,86.068,35.651L256,104.548l18.216-18.215c22.989-22.989,53.555-35.65,86.067-35.65
			c32.512,0,63.078,12.661,86.067,35.65c22.989,22.99,35.65,53.556,35.65,86.068C482,204.913,469.339,235.479,446.35,258.468z"/>
	</g>
</g>
<g>
	<g>
		<path d="M309.323,185.127v-48.893H202.677v48.893h-48.893v106.646h48.893v48.893h106.646v-48.893h48.893V185.127H309.323z
			 M328.216,261.773h-48.893v48.893h-46.646v-48.893h-48.893v-46.646h48.893v-48.893h46.646v48.893h48.893V261.773z"/>
	</g>
</g>
<g>
</g>
<g>
</g>
<g>
</g>
<g>
</g>
<g>
</g>
<g>
</g>
<g>
</g>
<g>
</g>
<g>
</g>
<g>
</g>
<g>
</g>
<g>
</g>
<g>
</g>
<g>
</g>
<g>
</g>
</svg>
