<?xml version="1.0" encoding="iso-8859-1"?>
<!-- Generator: Adobe Illustrator 21.0.0, SVG Export Plug-In . SVG Version: 6.00 Build 0)  -->
<svg version="1.1" id="Capa_1" xmlns="http://www.w3.org/2000/svg" xmlns:xlink="http://www.w3.org/1999/xlink" x="0px" y="0px"
	 viewBox="0 0 512 512" style="enable-background:new 0 0 512 512;" xml:space="preserve">
<g>
	<g>
		<path d="M256,0C139.674,0,45.036,94.638,45.036,210.964v225.988V512h421.928V210.964C466.964,94.638,372.326,0,256,0z
			 M420.452,135.488c10.592,22.986,16.512,48.551,16.512,75.476v0.012h-67.982v-0.012c0-26.209-2.482-51.714-7.214-75.476H420.452z
			 M368.982,316.464v-75.488h67.982v75.488H368.982z M436.964,346.464v75.488h-67.982v-75.488H436.964z M402.957,105.488h-48.642
			c-4.317-14.289-9.541-27.651-15.615-39.8c-3.923-7.845-8.128-15.034-12.578-21.547C357.036,57.185,383.592,78.583,402.957,105.488
			z M271,33.316c14.83,6.516,29.183,22.42,40.867,45.788c4.09,8.18,7.744,17.016,10.952,26.383H271V33.316z M271,135.488h60.154
			c5.13,23.402,7.828,48.986,7.828,75.476v0.012H271V135.488z M271,240.976h67.982v0v75.488H271V240.976z M271,346.464h67.982
			v75.488H271V346.464z M200.133,79.105C211.817,55.736,226.17,39.832,241,33.316v72.172h-51.819
			C192.389,96.121,196.043,87.285,200.133,79.105z M173.018,316.464v-75.488H241v0v75.488H173.018z M241,346.464v75.488h-67.982
			v-75.488H241z M173.018,210.976v-0.012c0-26.49,2.698-52.074,7.828-75.476H241v75.488H173.018z M185.878,44.141
			c-4.45,6.512-8.655,13.701-12.578,21.547c-6.074,12.148-11.298,25.511-15.615,39.8h-48.642
			C128.408,78.583,154.964,57.185,185.878,44.141z M75.036,210.964c0-26.925,5.92-52.49,16.512-75.476h58.684
			c-4.732,23.762-7.214,49.267-7.214,75.476v0.012H75.036V210.964z M75.036,240.976h67.982v75.488H75.036V240.976z M75.036,346.464
			h67.982v75.488H75.036V346.464z M436.964,482H75.036v-30.048h361.928V482z"/>
	</g>
</g>
<g>
</g>
<g>
</g>
<g>
</g>
<g>
</g>
<g>
</g>
<g>
</g>
<g>
</g>
<g>
</g>
<g>
</g>
<g>
</g>
<g>
</g>
<g>
</g>
<g>
</g>
<g>
</g>
<g>
</g>
</svg>
