<?xml version="1.0" encoding="UTF-8"?>
<svg id="Camada_2" data-name="Camada 2" xmlns="http://www.w3.org/2000/svg" viewBox="0 0 368.29 195.2">
  <defs>
    <style>
      .cls-1 {
        fill-rule: evenodd;
      }

      .cls-1, .cls-2 {
        fill: #06ab78;
      }
    </style>
  </defs>
  <g id="Camada_1-2" data-name="Camada 1">
    <g>
      <path class="cls-1" d="M135.32,179.65c2.79,0,5.23,1.46,6.56,3.77l.43-.24c-1.46-2.41-4.04-4.04-6.99-4.04-4.44,0-7.97,3.6-7.97,8.05s3.52,8.02,7.97,8.02c2.95,0,5.53-1.57,6.99-3.98l-.43-.24c-1.33,2.28-3.77,3.77-6.56,3.77-4.17,0-7.45-3.36-7.45-7.53s3.28-7.56,7.45-7.56Z"/>
      <path class="cls-1" d="M150.13,182.57c-3.41,0-5.8,2.84-5.8,6.31s2.87,6.31,6.31,6.31c2.03,0,3.79-.95,4.96-2.38l-.35-.3c-1.06,1.35-2.74,2.22-4.61,2.22-3.33,0-5.96-2.76-5.85-6.07h11.11v-.43c0-3.33-2.27-5.66-5.77-5.66ZM144.88,188.24c.27-2.93,2.36-5.2,5.26-5.2s5.31,1.87,5.31,5.2h-10.57Z"/>
      <path class="cls-1" d="M165.24,182.57c-2.57,0-4.66,1.6-5.55,3.98v-3.98h-.46v12.63h.46v-6.31c0-3.12,2.41-5.88,5.58-5.85,2.66.05,3.93,2.01,3.93,4.44v7.72h.49v-7.72c0-2.79-1.46-4.9-4.44-4.9Z"/>
      <path class="cls-1" d="M176.05,194.74c-1.71,0-2.36-1.3-2.36-2.84v-8.86h4.31v-.46h-4.31v-3.44h-.24c-.03.6-.19,2.87-.22,3.44h-1.68v.46h1.68v8.86c0,1.73.81,3.31,2.66,3.31.89,0,1.73-.35,2.33-.76l-.22-.35c-.49.38-1.22.65-1.95.65Z"/>
      <path class="cls-1" d="M181.47,186.56v-3.98h-.49v12.63h.49v-6.31c0-3.09,2.39-5.88,5.55-5.85v-.46c-2.57,0-4.69,1.6-5.55,3.98Z"/>
      <path class="cls-1" d="M193.42,182.57c-3.44,0-6.29,2.84-6.29,6.31s2.84,6.31,6.29,6.31,6.34-2.82,6.34-6.31-2.82-6.31-6.34-6.31ZM193.41,194.74c-3.17,0-5.82-2.6-5.82-5.85s2.66-5.85,5.83-5.85,5.85,2.63,5.85,5.85-2.6,5.85-5.85,5.85Z"/>
      <polygon class="cls-1" points="216.09 194.71 209.72 179.13 209.26 179.13 215.85 195.2 216.42 195.2 223 179.13 222.49 179.13 216.09 194.71"/>
      <path class="cls-1" d="M228.98,182.57c-3.41,0-5.8,2.84-5.8,6.31s2.87,6.31,6.31,6.31c2.03,0,3.79-.95,4.96-2.38l-.35-.3c-1.06,1.35-2.74,2.22-4.61,2.22-3.33,0-5.96-2.76-5.85-6.07h11.11v-.43c0-3.33-2.27-5.66-5.77-5.66ZM223.72,188.24c.27-2.93,2.36-5.2,5.26-5.2s5.31,1.87,5.31,5.2h-10.57Z"/>
      <path class="cls-1" d="M240.77,194.74c-1.71,0-2.36-1.3-2.36-2.84v-8.86h4.31v-.46h-4.31v-3.44h-.24c-.03.6-.19,2.87-.22,3.44h-1.68v.46h1.68v8.86c0,1.73.81,3.31,2.66,3.31.89,0,1.73-.35,2.33-.76l-.22-.35c-.49.38-1.22.65-1.95.65Z"/>
      <path class="cls-1" d="M249.57,182.57c-3.41,0-5.8,2.84-5.8,6.31s2.87,6.31,6.31,6.31c2.03,0,3.79-.95,4.96-2.38l-.35-.3c-1.06,1.35-2.74,2.22-4.61,2.22-3.33,0-5.96-2.76-5.85-6.07h11.11v-.43c0-3.33-2.27-5.66-5.77-5.66ZM244.31,188.24c.27-2.93,2.36-5.2,5.26-5.2s5.31,1.87,5.31,5.2h-10.57Z"/>
      <path class="cls-1" d="M259.15,186.56v-3.98h-.49v12.63h.49v-6.31c0-3.09,2.39-5.88,5.55-5.85v-.46c-2.57,0-4.69,1.6-5.55,3.98Z"/>
      <rect class="cls-2" x="266.96" y="182.57" width=".43" height="12.63"/>
      <path class="cls-1" d="M267.18,179.13c-.3,0-.52.27-.52.57s.22.52.52.52c.33,0,.52-.22.52-.52s-.19-.57-.52-.57Z"/>
      <path class="cls-1" d="M277.38,182.57c-2.57,0-4.66,1.6-5.55,3.98v-3.98h-.46v12.63h.46v-6.31c0-3.12,2.41-5.88,5.58-5.85,2.66.05,3.93,2.01,3.93,4.44v7.72h.49v-7.72c0-2.79-1.46-4.9-4.44-4.9Z"/>
      <polygon class="cls-1" points="292.59 178 289.78 181.65 290.1 181.65 293.22 178 292.59 178"/>
      <path class="cls-1" d="M297.09,186.5c-.92-2.3-3.2-3.93-5.83-3.93-3.5,0-6.31,2.84-6.31,6.31s2.82,6.31,6.31,6.31c2.63,0,4.9-1.63,5.83-3.96v3.96h.46v-12.63h-.46v3.93ZM291.26,194.74c-3.28,0-5.85-2.6-5.85-5.85,0-3.22,2.58-5.85,5.85-5.85s5.83,2.63,5.83,5.85-2.6,5.85-5.83,5.85Z"/>
      <path class="cls-1" d="M302.02,186.56v-3.98h-.49v12.63h.49v-6.31c0-3.09,2.39-5.88,5.55-5.85v-.46c-2.57,0-4.69,1.6-5.55,3.98Z"/>
      <path class="cls-1" d="M310.05,179.13c-.3,0-.52.27-.52.57s.22.52.52.52c.33,0,.52-.22.52-.52s-.19-.57-.52-.57Z"/>
      <rect class="cls-2" x="309.83" y="182.57" width=".43" height="12.63"/>
      <path class="cls-1" d="M319.48,182.57c-3.44,0-6.29,2.84-6.29,6.31s2.84,6.31,6.29,6.31,6.34-2.82,6.34-6.31-2.82-6.31-6.34-6.31ZM319.48,194.74c-3.17,0-5.82-2.6-5.82-5.85s2.66-5.85,5.83-5.85,5.85,2.63,5.85,5.85-2.6,5.85-5.85,5.85Z"/>
      <polygon class="cls-1" points="130.83 104.96 122.27 104.96 122.27 152.24 94.82 104.96 84.89 104.96 117.9 162.51 130.79 162.51 130.83 104.96"/>
      <path class="cls-1" d="M138.35,139.94c0,14.44,11.72,22.96,24.9,22.96,7.94,0,15.31-2.81,19.67-7.65l-5.33-6.1c-3.3,3.59-8.53,6.01-14.24,6.01-7.94,0-14.63-5.62-15.41-13.27h35.56c.39-1.65.58-3.2.58-4.75,0-12.31-9.88-20.16-22.28-20.16-14.15,0-23.45,9.4-23.45,22.96ZM174.49,136.06h-26.35c.58-6.88,6.1-11.82,13.08-11.82s13.27,4.17,13.27,11.82Z"/>
      <path class="cls-1" d="M216.9,152.63c-1.74,1.07-4.46,2.13-6.88,1.74-3.59-.2-5.13-3.1-5.13-6.59v-22.67h11.54s9.91,0,9.91,0v23.35c0,8.43,4.55,14.34,13.27,14.34,3.68,0,7.46-1.07,10.66-2.52l-2.13-7.65c-1.74,1.07-4.46,2.13-6.88,1.74-3.59-.2-5.13-3.1-5.13-6.59v-22.67h12.89v-7.75h-12.89v-12.21h-4.84c-1.55,3-3.39,9.3-4.94,12.21h-8.56s-12.89,0-12.89,0v-12.21h-4.84c-1.55,3-3.39,9.3-4.94,12.21h-5.42v7.75h5.42v23.35c0,8.43,4.55,14.34,13.27,14.34,3.68,0,7.46-1.07,10.66-2.52l-2.13-7.65Z"/>
      <path class="cls-1" d="M296.25,131.04c-3.35-8.37-11.62-14.28-21.27-14.28-12.6,0-22.84,10.34-22.84,22.94s10.24,22.94,22.84,22.94c9.65,0,17.92-5.91,21.27-14.38v14.38h1.67v-45.88h-1.67v14.28ZM274.98,160.97c-11.82,0-21.17-9.45-21.17-21.27s9.35-21.27,21.17-21.27,21.27,9.55,21.27,21.27-9.45,21.27-21.27,21.27Z"/>
      <rect class="cls-2" x="312.45" y="100.13" width="1.67" height="62.52"/>
      <path class="cls-1" d="M368.29,138.92v-1.58c0-12.11-8.27-20.58-20.97-20.58s-21.07,10.34-21.07,22.94,10.44,22.94,22.94,22.94c7.38,0,13.79-3.45,18.02-8.66l-1.28-1.08c-3.84,4.92-9.94,8.07-16.74,8.07-12.11,0-21.66-10.04-21.27-22.06h40.37ZM347.32,118.44c10.63,0,19.3,6.79,19.3,18.9h-38.4c.98-10.64,8.57-18.9,19.1-18.9Z"/>
      <path class="cls-1" d="M107.86,166.38c-6.1-2.72-12.24-12.45-16.63-20.92-1.77-4.49-3.94-9.5-6.33-13.81,0,0,0,0,0,0h0c-2.79-5.03-5.87-9.1-8.91-10.31-9.7-3.84-19.4-7.27-21.42-15.56s1.21-18.19,1.21-18.19c0,0,7.38,0,8.99-1.01,1.62-1.01,6.27-9.3,12.13-12.33s15.96,1.41,20.54-21.2c0,0,13.99,4.61,12.49,22.31l14.28,18.37c2.07,2.24,6.69,6.08,9.72,6.46,5.08.64,15.09-1.34,23.47-5.21,10.13-4.68,13.74-16.5,11.95-19.6-3.18-5.51-25.44-29.43-25.44-29.43,3.56-10.85-.23-20.96-8.44-29.3C121.34,6.19,103.86,0,84.94,0c-9.1,0-17.86,1.44-26.08,4.09-12.85,8.35-23.57,19.34-24.69,29.2-.85,7.42,3.69,10.91,8.57,14.67,3.13,2.41,6.39,4.91,8.96,8.53,2.15,3.02,8.84,9.43,12.58,11.97,1.91,1.3,3.86,2.16,5.64,2.15,1.57,0,3.16-.78,4.69-2.7,1.71-2.15,5.02-7.72,6.32-12.8,4.6-17.89-4.86-43.96,22.64-44.97-20.81,4.15-15.13,30.23-19.19,46.02-1.53,5.94-3.48,10.1-5.68,12.86-2.79,3.51-5.99,4.92-9.32,4.94-3.12.02-6.18-1.26-9.01-3.17-4.46-3.03-8.4-7.73-10.84-11.15-2.06-2.9-4.95-5.12-7.73-7.26-6.27-4.83-12.09-9.3-10.87-20.08,1.09-9.58,8.87-18.1,17.79-24.19C19.63,21.82-.42,51.6,0,86.02c.53,42.5,32.68,77.58,73.66,83.09h0c42.78,8.53,45.61,2.36,34.19-2.73Z"/>
    </g>
  </g>
</svg>